<mxfile host="app.diagrams.net" modified="2023-12-25T04:30:52.142Z" agent="Mozilla/5.0 (Macintosh; Intel Mac OS X 10_15_7) AppleWebKit/537.36 (KHTML, like Gecko) Chrome/120.0.0.0 Safari/537.36 Edg/120.0.0.0" etag="9me0lU1MLyoJ6USbE2HC" version="22.1.11" type="github">
  <diagram name="第 1 页" id="yO8C3synN544rtvm2S4F">
    <mxGraphModel dx="2145" dy="1187" grid="1" gridSize="10" guides="1" tooltips="1" connect="1" arrows="1" fold="1" page="1" pageScale="1" pageWidth="827" pageHeight="1169" math="0" shadow="0">
      <root>
        <mxCell id="0" />
        <mxCell id="1" parent="0" />
        <mxCell id="sbz4BKp12S0qKi5tp8fs-221" value="" style="rounded=0;whiteSpace=wrap;html=1;" parent="1" vertex="1">
          <mxGeometry x="250" y="5250" width="680" height="180" as="geometry" />
        </mxCell>
        <mxCell id="sbz4BKp12S0qKi5tp8fs-118" value="" style="rounded=0;whiteSpace=wrap;html=1;" parent="1" vertex="1">
          <mxGeometry x="560" y="2830" width="330" height="130" as="geometry" />
        </mxCell>
        <mxCell id="hao624cxYrBAlQ7TwznD-4" value="" style="edgeStyle=orthogonalEdgeStyle;rounded=0;orthogonalLoop=1;jettySize=auto;html=1;" parent="1" source="hao624cxYrBAlQ7TwznD-1" target="hao624cxYrBAlQ7TwznD-2" edge="1">
          <mxGeometry relative="1" as="geometry" />
        </mxCell>
        <mxCell id="hao624cxYrBAlQ7TwznD-1" value="&lt;font style=&quot;font-size: 24px;&quot;&gt;a&lt;/font&gt;" style="rounded=0;whiteSpace=wrap;html=1;" parent="1" vertex="1">
          <mxGeometry x="160" y="340" width="120" height="60" as="geometry" />
        </mxCell>
        <mxCell id="hao624cxYrBAlQ7TwznD-5" value="" style="edgeStyle=orthogonalEdgeStyle;rounded=0;orthogonalLoop=1;jettySize=auto;html=1;" parent="1" source="hao624cxYrBAlQ7TwznD-2" target="hao624cxYrBAlQ7TwznD-3" edge="1">
          <mxGeometry relative="1" as="geometry" />
        </mxCell>
        <mxCell id="hao624cxYrBAlQ7TwznD-2" value="&lt;font style=&quot;font-size: 24px;&quot;&gt;b&lt;/font&gt;" style="rounded=0;whiteSpace=wrap;html=1;" parent="1" vertex="1">
          <mxGeometry x="310" y="340" width="120" height="60" as="geometry" />
        </mxCell>
        <mxCell id="hao624cxYrBAlQ7TwznD-3" value="&lt;font style=&quot;font-size: 24px;&quot;&gt;c&lt;/font&gt;" style="rounded=0;whiteSpace=wrap;html=1;" parent="1" vertex="1">
          <mxGeometry x="490" y="340" width="120" height="60" as="geometry" />
        </mxCell>
        <mxCell id="hao624cxYrBAlQ7TwznD-12" style="edgeStyle=orthogonalEdgeStyle;rounded=0;orthogonalLoop=1;jettySize=auto;html=1;exitX=0.5;exitY=0;exitDx=0;exitDy=0;entryX=0.5;entryY=0;entryDx=0;entryDy=0;" parent="1" source="hao624cxYrBAlQ7TwznD-7" target="hao624cxYrBAlQ7TwznD-10" edge="1">
          <mxGeometry relative="1" as="geometry" />
        </mxCell>
        <mxCell id="hao624cxYrBAlQ7TwznD-7" value="&lt;font style=&quot;font-size: 24px;&quot;&gt;a&lt;/font&gt;" style="rounded=0;whiteSpace=wrap;html=1;" parent="1" vertex="1">
          <mxGeometry x="160" y="480" width="120" height="60" as="geometry" />
        </mxCell>
        <mxCell id="sbz4BKp12S0qKi5tp8fs-1" value="" style="edgeStyle=orthogonalEdgeStyle;rounded=0;orthogonalLoop=1;jettySize=auto;html=1;" parent="1" source="hao624cxYrBAlQ7TwznD-9" target="hao624cxYrBAlQ7TwznD-10" edge="1">
          <mxGeometry relative="1" as="geometry" />
        </mxCell>
        <mxCell id="hao624cxYrBAlQ7TwznD-9" value="&lt;font style=&quot;font-size: 24px;&quot;&gt;b&lt;/font&gt;" style="rounded=0;whiteSpace=wrap;html=1;" parent="1" vertex="1">
          <mxGeometry x="310" y="480" width="120" height="60" as="geometry" />
        </mxCell>
        <mxCell id="hao624cxYrBAlQ7TwznD-10" value="&lt;font style=&quot;font-size: 24px;&quot;&gt;c&lt;/font&gt;" style="rounded=0;whiteSpace=wrap;html=1;" parent="1" vertex="1">
          <mxGeometry x="490" y="480" width="120" height="60" as="geometry" />
        </mxCell>
        <mxCell id="sbz4BKp12S0qKi5tp8fs-2" style="edgeStyle=orthogonalEdgeStyle;rounded=0;orthogonalLoop=1;jettySize=auto;html=1;exitX=0.5;exitY=0;exitDx=0;exitDy=0;entryX=0.5;entryY=0;entryDx=0;entryDy=0;" parent="1" source="sbz4BKp12S0qKi5tp8fs-3" target="sbz4BKp12S0qKi5tp8fs-6" edge="1">
          <mxGeometry relative="1" as="geometry" />
        </mxCell>
        <mxCell id="sbz4BKp12S0qKi5tp8fs-3" value="&lt;font style=&quot;font-size: 24px;&quot;&gt;a&lt;/font&gt;" style="rounded=0;whiteSpace=wrap;html=1;" parent="1" vertex="1">
          <mxGeometry x="160" y="630" width="120" height="60" as="geometry" />
        </mxCell>
        <mxCell id="sbz4BKp12S0qKi5tp8fs-8" value="" style="edgeStyle=orthogonalEdgeStyle;rounded=0;orthogonalLoop=1;jettySize=auto;html=1;" parent="1" source="sbz4BKp12S0qKi5tp8fs-5" edge="1">
          <mxGeometry relative="1" as="geometry">
            <mxPoint x="370" y="770" as="targetPoint" />
          </mxGeometry>
        </mxCell>
        <mxCell id="sbz4BKp12S0qKi5tp8fs-5" value="&lt;font style=&quot;font-size: 24px;&quot;&gt;b&lt;/font&gt;" style="rounded=0;whiteSpace=wrap;html=1;" parent="1" vertex="1">
          <mxGeometry x="310" y="630" width="120" height="60" as="geometry" />
        </mxCell>
        <mxCell id="sbz4BKp12S0qKi5tp8fs-6" value="&lt;font style=&quot;font-size: 24px;&quot;&gt;c&lt;/font&gt;" style="rounded=0;whiteSpace=wrap;html=1;" parent="1" vertex="1">
          <mxGeometry x="490" y="630" width="120" height="60" as="geometry" />
        </mxCell>
        <mxCell id="sbz4BKp12S0qKi5tp8fs-9" value="NULL" style="text;html=1;strokeColor=none;fillColor=none;align=center;verticalAlign=middle;whiteSpace=wrap;rounded=0;" parent="1" vertex="1">
          <mxGeometry x="335" y="760" width="70" height="50" as="geometry" />
        </mxCell>
        <mxCell id="sbz4BKp12S0qKi5tp8fs-10" value="" style="edgeStyle=orthogonalEdgeStyle;rounded=0;orthogonalLoop=1;jettySize=auto;html=1;" parent="1" source="sbz4BKp12S0qKi5tp8fs-11" target="sbz4BKp12S0qKi5tp8fs-13" edge="1">
          <mxGeometry relative="1" as="geometry" />
        </mxCell>
        <mxCell id="sbz4BKp12S0qKi5tp8fs-11" value="&lt;font style=&quot;font-size: 24px;&quot;&gt;a&lt;/font&gt;" style="rounded=0;whiteSpace=wrap;html=1;" parent="1" vertex="1">
          <mxGeometry x="20" y="2520" width="120" height="60" as="geometry" />
        </mxCell>
        <mxCell id="sbz4BKp12S0qKi5tp8fs-12" value="" style="edgeStyle=orthogonalEdgeStyle;rounded=0;orthogonalLoop=1;jettySize=auto;html=1;" parent="1" source="sbz4BKp12S0qKi5tp8fs-13" target="sbz4BKp12S0qKi5tp8fs-14" edge="1">
          <mxGeometry relative="1" as="geometry" />
        </mxCell>
        <mxCell id="sbz4BKp12S0qKi5tp8fs-13" value="&lt;font style=&quot;font-size: 24px;&quot;&gt;b&lt;/font&gt;" style="rounded=0;whiteSpace=wrap;html=1;" parent="1" vertex="1">
          <mxGeometry x="170" y="2520" width="120" height="60" as="geometry" />
        </mxCell>
        <mxCell id="sbz4BKp12S0qKi5tp8fs-77" value="" style="edgeStyle=orthogonalEdgeStyle;rounded=0;orthogonalLoop=1;jettySize=auto;html=1;" parent="1" source="sbz4BKp12S0qKi5tp8fs-14" target="sbz4BKp12S0qKi5tp8fs-76" edge="1">
          <mxGeometry relative="1" as="geometry" />
        </mxCell>
        <mxCell id="sbz4BKp12S0qKi5tp8fs-14" value="&lt;font style=&quot;font-size: 24px;&quot;&gt;c&lt;/font&gt;" style="rounded=0;whiteSpace=wrap;html=1;" parent="1" vertex="1">
          <mxGeometry x="350" y="2520" width="120" height="60" as="geometry" />
        </mxCell>
        <mxCell id="sbz4BKp12S0qKi5tp8fs-16" value="" style="edgeStyle=orthogonalEdgeStyle;rounded=0;orthogonalLoop=1;jettySize=auto;html=1;" parent="1" source="sbz4BKp12S0qKi5tp8fs-17" target="sbz4BKp12S0qKi5tp8fs-19" edge="1">
          <mxGeometry relative="1" as="geometry" />
        </mxCell>
        <mxCell id="sbz4BKp12S0qKi5tp8fs-17" value="&lt;font style=&quot;font-size: 24px;&quot;&gt;a&lt;/font&gt;" style="rounded=0;whiteSpace=wrap;html=1;" parent="1" vertex="1">
          <mxGeometry x="140" y="1130" width="120" height="60" as="geometry" />
        </mxCell>
        <mxCell id="sbz4BKp12S0qKi5tp8fs-18" value="" style="edgeStyle=orthogonalEdgeStyle;rounded=0;orthogonalLoop=1;jettySize=auto;html=1;" parent="1" source="sbz4BKp12S0qKi5tp8fs-19" target="sbz4BKp12S0qKi5tp8fs-20" edge="1">
          <mxGeometry relative="1" as="geometry" />
        </mxCell>
        <mxCell id="sbz4BKp12S0qKi5tp8fs-19" value="&lt;font style=&quot;font-size: 24px;&quot;&gt;b&lt;/font&gt;" style="rounded=0;whiteSpace=wrap;html=1;" parent="1" vertex="1">
          <mxGeometry x="290" y="1130" width="120" height="60" as="geometry" />
        </mxCell>
        <mxCell id="sbz4BKp12S0qKi5tp8fs-20" value="&lt;font style=&quot;font-size: 24px;&quot;&gt;c&lt;/font&gt;" style="rounded=0;whiteSpace=wrap;html=1;" parent="1" vertex="1">
          <mxGeometry x="470" y="1130" width="120" height="60" as="geometry" />
        </mxCell>
        <mxCell id="sbz4BKp12S0qKi5tp8fs-22" value="" style="edgeStyle=orthogonalEdgeStyle;rounded=0;orthogonalLoop=1;jettySize=auto;html=1;" parent="1" source="sbz4BKp12S0qKi5tp8fs-21" target="sbz4BKp12S0qKi5tp8fs-19" edge="1">
          <mxGeometry relative="1" as="geometry" />
        </mxCell>
        <mxCell id="sbz4BKp12S0qKi5tp8fs-21" value="&lt;font style=&quot;font-size: 24px;&quot;&gt;C&lt;/font&gt;" style="rounded=0;whiteSpace=wrap;html=1;" parent="1" vertex="1">
          <mxGeometry x="290" y="1040" width="120" height="60" as="geometry" />
        </mxCell>
        <mxCell id="sbz4BKp12S0qKi5tp8fs-30" style="edgeStyle=orthogonalEdgeStyle;rounded=0;orthogonalLoop=1;jettySize=auto;html=1;exitX=1;exitY=0.5;exitDx=0;exitDy=0;entryX=0;entryY=0.5;entryDx=0;entryDy=0;" parent="1" source="sbz4BKp12S0qKi5tp8fs-24" target="sbz4BKp12S0qKi5tp8fs-29" edge="1">
          <mxGeometry relative="1" as="geometry" />
        </mxCell>
        <mxCell id="sbz4BKp12S0qKi5tp8fs-24" value="&lt;font style=&quot;font-size: 24px;&quot;&gt;a&lt;/font&gt;" style="rounded=0;whiteSpace=wrap;html=1;" parent="1" vertex="1">
          <mxGeometry x="130" y="1370" width="120" height="60" as="geometry" />
        </mxCell>
        <mxCell id="sbz4BKp12S0qKi5tp8fs-25" value="" style="edgeStyle=orthogonalEdgeStyle;rounded=0;orthogonalLoop=1;jettySize=auto;html=1;" parent="1" source="sbz4BKp12S0qKi5tp8fs-26" target="sbz4BKp12S0qKi5tp8fs-27" edge="1">
          <mxGeometry relative="1" as="geometry" />
        </mxCell>
        <mxCell id="sbz4BKp12S0qKi5tp8fs-26" value="&lt;font style=&quot;font-size: 24px;&quot;&gt;b&lt;/font&gt;" style="rounded=0;whiteSpace=wrap;html=1;" parent="1" vertex="1">
          <mxGeometry x="295" y="1370" width="120" height="60" as="geometry" />
        </mxCell>
        <mxCell id="sbz4BKp12S0qKi5tp8fs-27" value="&lt;font style=&quot;font-size: 24px;&quot;&gt;c&lt;/font&gt;" style="rounded=0;whiteSpace=wrap;html=1;" parent="1" vertex="1">
          <mxGeometry x="475" y="1370" width="120" height="60" as="geometry" />
        </mxCell>
        <mxCell id="sbz4BKp12S0qKi5tp8fs-28" value="" style="edgeStyle=orthogonalEdgeStyle;rounded=0;orthogonalLoop=1;jettySize=auto;html=1;" parent="1" source="sbz4BKp12S0qKi5tp8fs-29" target="sbz4BKp12S0qKi5tp8fs-26" edge="1">
          <mxGeometry relative="1" as="geometry" />
        </mxCell>
        <mxCell id="sbz4BKp12S0qKi5tp8fs-29" value="&lt;font style=&quot;font-size: 24px;&quot;&gt;C&lt;/font&gt;" style="rounded=0;whiteSpace=wrap;html=1;" parent="1" vertex="1">
          <mxGeometry x="294" y="1280" width="120" height="60" as="geometry" />
        </mxCell>
        <mxCell id="sbz4BKp12S0qKi5tp8fs-37" value="" style="edgeStyle=orthogonalEdgeStyle;rounded=0;orthogonalLoop=1;jettySize=auto;html=1;" parent="1" source="sbz4BKp12S0qKi5tp8fs-38" target="sbz4BKp12S0qKi5tp8fs-40" edge="1">
          <mxGeometry relative="1" as="geometry" />
        </mxCell>
        <mxCell id="sbz4BKp12S0qKi5tp8fs-38" value="" style="rounded=0;whiteSpace=wrap;html=1;" parent="1" vertex="1">
          <mxGeometry x="150" y="1760" width="120" height="60" as="geometry" />
        </mxCell>
        <mxCell id="sbz4BKp12S0qKi5tp8fs-39" value="" style="edgeStyle=orthogonalEdgeStyle;rounded=0;orthogonalLoop=1;jettySize=auto;html=1;" parent="1" source="sbz4BKp12S0qKi5tp8fs-40" target="sbz4BKp12S0qKi5tp8fs-41" edge="1">
          <mxGeometry relative="1" as="geometry" />
        </mxCell>
        <mxCell id="sbz4BKp12S0qKi5tp8fs-40" value="&lt;span style=&quot;font-size: 24px;&quot;&gt;remove&lt;/span&gt;" style="rounded=0;whiteSpace=wrap;html=1;" parent="1" vertex="1">
          <mxGeometry x="300" y="1760" width="120" height="60" as="geometry" />
        </mxCell>
        <mxCell id="sbz4BKp12S0qKi5tp8fs-41" value="" style="rounded=0;whiteSpace=wrap;html=1;" parent="1" vertex="1">
          <mxGeometry x="475" y="1760" width="120" height="60" as="geometry" />
        </mxCell>
        <mxCell id="sbz4BKp12S0qKi5tp8fs-42" value="&lt;font style=&quot;font-size: 24px;&quot;&gt;list2&lt;/font&gt;" style="rounded=0;whiteSpace=wrap;html=1;" parent="1" vertex="1">
          <mxGeometry x="290" y="1670" width="120" height="60" as="geometry" />
        </mxCell>
        <mxCell id="sbz4BKp12S0qKi5tp8fs-44" value="" style="edgeStyle=orthogonalEdgeStyle;rounded=0;orthogonalLoop=1;jettySize=auto;html=1;" parent="1" source="sbz4BKp12S0qKi5tp8fs-43" target="sbz4BKp12S0qKi5tp8fs-38" edge="1">
          <mxGeometry relative="1" as="geometry" />
        </mxCell>
        <mxCell id="sbz4BKp12S0qKi5tp8fs-43" value="&lt;font style=&quot;font-size: 24px;&quot;&gt;List1&lt;/font&gt;" style="text;html=1;strokeColor=none;fillColor=none;align=center;verticalAlign=middle;whiteSpace=wrap;rounded=0;" parent="1" vertex="1">
          <mxGeometry x="45" y="1775" width="60" height="30" as="geometry" />
        </mxCell>
        <mxCell id="sbz4BKp12S0qKi5tp8fs-45" value="" style="edgeStyle=orthogonalEdgeStyle;rounded=0;orthogonalLoop=1;jettySize=auto;html=1;" parent="1" source="sbz4BKp12S0qKi5tp8fs-46" target="sbz4BKp12S0qKi5tp8fs-48" edge="1">
          <mxGeometry relative="1" as="geometry" />
        </mxCell>
        <mxCell id="sbz4BKp12S0qKi5tp8fs-46" value="" style="rounded=0;whiteSpace=wrap;html=1;" parent="1" vertex="1">
          <mxGeometry x="145" y="1980" width="120" height="60" as="geometry" />
        </mxCell>
        <mxCell id="sbz4BKp12S0qKi5tp8fs-47" value="" style="edgeStyle=orthogonalEdgeStyle;rounded=0;orthogonalLoop=1;jettySize=auto;html=1;" parent="1" source="sbz4BKp12S0qKi5tp8fs-48" target="sbz4BKp12S0qKi5tp8fs-49" edge="1">
          <mxGeometry relative="1" as="geometry" />
        </mxCell>
        <mxCell id="sbz4BKp12S0qKi5tp8fs-48" value="&lt;span style=&quot;font-size: 24px;&quot;&gt;remove&lt;/span&gt;" style="rounded=0;whiteSpace=wrap;html=1;" parent="1" vertex="1">
          <mxGeometry x="295" y="1980" width="120" height="60" as="geometry" />
        </mxCell>
        <mxCell id="sbz4BKp12S0qKi5tp8fs-49" value="" style="rounded=0;whiteSpace=wrap;html=1;" parent="1" vertex="1">
          <mxGeometry x="470" y="1980" width="120" height="60" as="geometry" />
        </mxCell>
        <mxCell id="sbz4BKp12S0qKi5tp8fs-63" value="" style="edgeStyle=orthogonalEdgeStyle;rounded=0;orthogonalLoop=1;jettySize=auto;html=1;" parent="1" source="sbz4BKp12S0qKi5tp8fs-50" target="sbz4BKp12S0qKi5tp8fs-49" edge="1">
          <mxGeometry relative="1" as="geometry" />
        </mxCell>
        <mxCell id="sbz4BKp12S0qKi5tp8fs-50" value="&lt;font style=&quot;font-size: 24px;&quot;&gt;list2&lt;/font&gt;" style="rounded=0;whiteSpace=wrap;html=1;" parent="1" vertex="1">
          <mxGeometry x="470" y="1870" width="120" height="60" as="geometry" />
        </mxCell>
        <mxCell id="sbz4BKp12S0qKi5tp8fs-51" value="" style="edgeStyle=orthogonalEdgeStyle;rounded=0;orthogonalLoop=1;jettySize=auto;html=1;" parent="1" source="sbz4BKp12S0qKi5tp8fs-52" target="sbz4BKp12S0qKi5tp8fs-46" edge="1">
          <mxGeometry relative="1" as="geometry" />
        </mxCell>
        <mxCell id="sbz4BKp12S0qKi5tp8fs-52" value="&lt;font style=&quot;font-size: 24px;&quot;&gt;List1&lt;/font&gt;" style="text;html=1;strokeColor=none;fillColor=none;align=center;verticalAlign=middle;whiteSpace=wrap;rounded=0;" parent="1" vertex="1">
          <mxGeometry x="40" y="1995" width="60" height="30" as="geometry" />
        </mxCell>
        <mxCell id="sbz4BKp12S0qKi5tp8fs-75" style="edgeStyle=orthogonalEdgeStyle;rounded=0;orthogonalLoop=1;jettySize=auto;html=1;exitX=0.5;exitY=0;exitDx=0;exitDy=0;entryX=0;entryY=0.5;entryDx=0;entryDy=0;" parent="1" source="sbz4BKp12S0qKi5tp8fs-65" target="sbz4BKp12S0qKi5tp8fs-70" edge="1">
          <mxGeometry relative="1" as="geometry" />
        </mxCell>
        <mxCell id="sbz4BKp12S0qKi5tp8fs-65" value="" style="rounded=0;whiteSpace=wrap;html=1;" parent="1" vertex="1">
          <mxGeometry x="145" y="2215" width="120" height="50" as="geometry" />
        </mxCell>
        <mxCell id="sbz4BKp12S0qKi5tp8fs-66" value="" style="edgeStyle=orthogonalEdgeStyle;rounded=0;orthogonalLoop=1;jettySize=auto;html=1;" parent="1" source="sbz4BKp12S0qKi5tp8fs-67" target="sbz4BKp12S0qKi5tp8fs-68" edge="1">
          <mxGeometry relative="1" as="geometry" />
        </mxCell>
        <mxCell id="sbz4BKp12S0qKi5tp8fs-67" value="&lt;span style=&quot;font-size: 24px;&quot;&gt;remove&lt;/span&gt;" style="rounded=0;whiteSpace=wrap;html=1;" parent="1" vertex="1">
          <mxGeometry x="295" y="2210" width="120" height="60" as="geometry" />
        </mxCell>
        <mxCell id="sbz4BKp12S0qKi5tp8fs-68" value="" style="rounded=0;whiteSpace=wrap;html=1;" parent="1" vertex="1">
          <mxGeometry x="470" y="2210" width="120" height="60" as="geometry" />
        </mxCell>
        <mxCell id="sbz4BKp12S0qKi5tp8fs-69" value="" style="edgeStyle=orthogonalEdgeStyle;rounded=0;orthogonalLoop=1;jettySize=auto;html=1;" parent="1" source="sbz4BKp12S0qKi5tp8fs-70" target="sbz4BKp12S0qKi5tp8fs-68" edge="1">
          <mxGeometry relative="1" as="geometry" />
        </mxCell>
        <mxCell id="sbz4BKp12S0qKi5tp8fs-70" value="&lt;font style=&quot;font-size: 24px;&quot;&gt;list2&lt;/font&gt;" style="rounded=0;whiteSpace=wrap;html=1;" parent="1" vertex="1">
          <mxGeometry x="470" y="2100" width="120" height="60" as="geometry" />
        </mxCell>
        <mxCell id="sbz4BKp12S0qKi5tp8fs-71" value="" style="edgeStyle=orthogonalEdgeStyle;rounded=0;orthogonalLoop=1;jettySize=auto;html=1;" parent="1" source="sbz4BKp12S0qKi5tp8fs-72" target="sbz4BKp12S0qKi5tp8fs-65" edge="1">
          <mxGeometry relative="1" as="geometry" />
        </mxCell>
        <mxCell id="sbz4BKp12S0qKi5tp8fs-72" value="&lt;font style=&quot;font-size: 24px;&quot;&gt;List1&lt;/font&gt;" style="text;html=1;strokeColor=none;fillColor=none;align=center;verticalAlign=middle;whiteSpace=wrap;rounded=0;" parent="1" vertex="1">
          <mxGeometry x="40" y="2225" width="60" height="30" as="geometry" />
        </mxCell>
        <mxCell id="sbz4BKp12S0qKi5tp8fs-89" value="" style="edgeStyle=orthogonalEdgeStyle;rounded=0;orthogonalLoop=1;jettySize=auto;html=1;" parent="1" source="sbz4BKp12S0qKi5tp8fs-76" target="sbz4BKp12S0qKi5tp8fs-78" edge="1">
          <mxGeometry relative="1" as="geometry" />
        </mxCell>
        <mxCell id="sbz4BKp12S0qKi5tp8fs-76" value="&lt;font style=&quot;font-size: 24px;&quot;&gt;D&lt;/font&gt;" style="rounded=0;whiteSpace=wrap;html=1;" parent="1" vertex="1">
          <mxGeometry x="520" y="2520" width="120" height="60" as="geometry" />
        </mxCell>
        <mxCell id="sbz4BKp12S0qKi5tp8fs-78" value="&lt;font style=&quot;font-size: 24px;&quot;&gt;NULL&lt;/font&gt;" style="text;html=1;strokeColor=none;fillColor=none;align=center;verticalAlign=middle;whiteSpace=wrap;rounded=0;" parent="1" vertex="1">
          <mxGeometry x="700" y="2535" width="60" height="30" as="geometry" />
        </mxCell>
        <mxCell id="sbz4BKp12S0qKi5tp8fs-79" value="&lt;font style=&quot;font-size: 24px;&quot;&gt;FAST&lt;br&gt;&lt;/font&gt;" style="text;html=1;strokeColor=none;fillColor=none;align=center;verticalAlign=middle;whiteSpace=wrap;rounded=0;" parent="1" vertex="1">
          <mxGeometry x="370" y="2470" width="60" height="30" as="geometry" />
        </mxCell>
        <mxCell id="sbz4BKp12S0qKi5tp8fs-80" value="" style="edgeStyle=orthogonalEdgeStyle;rounded=0;orthogonalLoop=1;jettySize=auto;html=1;" parent="1" source="sbz4BKp12S0qKi5tp8fs-81" target="sbz4BKp12S0qKi5tp8fs-83" edge="1">
          <mxGeometry relative="1" as="geometry" />
        </mxCell>
        <mxCell id="sbz4BKp12S0qKi5tp8fs-81" value="&lt;font style=&quot;font-size: 24px;&quot;&gt;a&lt;/font&gt;" style="rounded=0;whiteSpace=wrap;html=1;" parent="1" vertex="1">
          <mxGeometry x="20" y="2710" width="120" height="60" as="geometry" />
        </mxCell>
        <mxCell id="sbz4BKp12S0qKi5tp8fs-82" value="" style="edgeStyle=orthogonalEdgeStyle;rounded=0;orthogonalLoop=1;jettySize=auto;html=1;" parent="1" source="sbz4BKp12S0qKi5tp8fs-83" target="sbz4BKp12S0qKi5tp8fs-85" edge="1">
          <mxGeometry relative="1" as="geometry" />
        </mxCell>
        <mxCell id="sbz4BKp12S0qKi5tp8fs-83" value="&lt;font style=&quot;font-size: 24px;&quot;&gt;b&lt;/font&gt;" style="rounded=0;whiteSpace=wrap;html=1;" parent="1" vertex="1">
          <mxGeometry x="170" y="2710" width="120" height="60" as="geometry" />
        </mxCell>
        <mxCell id="sbz4BKp12S0qKi5tp8fs-84" value="" style="edgeStyle=orthogonalEdgeStyle;rounded=0;orthogonalLoop=1;jettySize=auto;html=1;" parent="1" source="sbz4BKp12S0qKi5tp8fs-85" target="sbz4BKp12S0qKi5tp8fs-86" edge="1">
          <mxGeometry relative="1" as="geometry" />
        </mxCell>
        <mxCell id="sbz4BKp12S0qKi5tp8fs-85" value="&lt;font style=&quot;font-size: 24px;&quot;&gt;c&lt;/font&gt;" style="rounded=0;whiteSpace=wrap;html=1;" parent="1" vertex="1">
          <mxGeometry x="350" y="2710" width="120" height="60" as="geometry" />
        </mxCell>
        <mxCell id="sbz4BKp12S0qKi5tp8fs-90" value="" style="edgeStyle=orthogonalEdgeStyle;rounded=0;orthogonalLoop=1;jettySize=auto;html=1;" parent="1" source="sbz4BKp12S0qKi5tp8fs-86" target="sbz4BKp12S0qKi5tp8fs-87" edge="1">
          <mxGeometry relative="1" as="geometry" />
        </mxCell>
        <mxCell id="sbz4BKp12S0qKi5tp8fs-86" value="&lt;font style=&quot;font-size: 24px;&quot;&gt;D&lt;/font&gt;" style="rounded=0;whiteSpace=wrap;html=1;" parent="1" vertex="1">
          <mxGeometry x="520" y="2710" width="120" height="60" as="geometry" />
        </mxCell>
        <mxCell id="sbz4BKp12S0qKi5tp8fs-87" value="&lt;font style=&quot;font-size: 24px;&quot;&gt;NULL&lt;/font&gt;" style="text;html=1;strokeColor=none;fillColor=none;align=center;verticalAlign=middle;whiteSpace=wrap;rounded=0;" parent="1" vertex="1">
          <mxGeometry x="700" y="2725" width="60" height="30" as="geometry" />
        </mxCell>
        <mxCell id="sbz4BKp12S0qKi5tp8fs-88" value="&lt;font style=&quot;font-size: 24px;&quot;&gt;SLOW&lt;br&gt;&lt;/font&gt;" style="text;html=1;strokeColor=none;fillColor=none;align=center;verticalAlign=middle;whiteSpace=wrap;rounded=0;" parent="1" vertex="1">
          <mxGeometry x="50" y="2470" width="60" height="30" as="geometry" />
        </mxCell>
        <mxCell id="sbz4BKp12S0qKi5tp8fs-91" value="&lt;font style=&quot;font-size: 24px;&quot;&gt;K = 2&lt;/font&gt;" style="text;html=1;align=center;verticalAlign=middle;resizable=0;points=[];autosize=1;strokeColor=none;fillColor=none;" parent="1" vertex="1">
          <mxGeometry x="440" y="2400" width="80" height="40" as="geometry" />
        </mxCell>
        <mxCell id="sbz4BKp12S0qKi5tp8fs-92" value="&lt;font style=&quot;font-size: 24px;&quot;&gt;FAST&lt;br&gt;&lt;/font&gt;" style="text;html=1;strokeColor=none;fillColor=none;align=center;verticalAlign=middle;whiteSpace=wrap;rounded=0;" parent="1" vertex="1">
          <mxGeometry x="790" y="2830" width="60" height="30" as="geometry" />
        </mxCell>
        <mxCell id="sbz4BKp12S0qKi5tp8fs-93" value="&lt;font style=&quot;font-size: 24px;&quot;&gt;SLOW&lt;br&gt;&lt;/font&gt;" style="text;html=1;strokeColor=none;fillColor=none;align=center;verticalAlign=middle;whiteSpace=wrap;rounded=0;" parent="1" vertex="1">
          <mxGeometry x="430" y="2820" width="60" height="30" as="geometry" />
        </mxCell>
        <mxCell id="sbz4BKp12S0qKi5tp8fs-94" value="" style="edgeStyle=orthogonalEdgeStyle;rounded=0;orthogonalLoop=1;jettySize=auto;html=1;" parent="1" source="sbz4BKp12S0qKi5tp8fs-95" target="sbz4BKp12S0qKi5tp8fs-97" edge="1">
          <mxGeometry relative="1" as="geometry" />
        </mxCell>
        <mxCell id="sbz4BKp12S0qKi5tp8fs-95" value="&lt;font style=&quot;font-size: 24px;&quot;&gt;a&lt;/font&gt;" style="rounded=0;whiteSpace=wrap;html=1;" parent="1" vertex="1">
          <mxGeometry x="70" y="2863" width="120" height="60" as="geometry" />
        </mxCell>
        <mxCell id="sbz4BKp12S0qKi5tp8fs-96" value="" style="edgeStyle=orthogonalEdgeStyle;rounded=0;orthogonalLoop=1;jettySize=auto;html=1;" parent="1" source="sbz4BKp12S0qKi5tp8fs-97" target="sbz4BKp12S0qKi5tp8fs-99" edge="1">
          <mxGeometry relative="1" as="geometry" />
        </mxCell>
        <mxCell id="sbz4BKp12S0qKi5tp8fs-97" value="&lt;font style=&quot;font-size: 24px;&quot;&gt;b&lt;/font&gt;" style="rounded=0;whiteSpace=wrap;html=1;" parent="1" vertex="1">
          <mxGeometry x="220" y="2863" width="120" height="60" as="geometry" />
        </mxCell>
        <mxCell id="sbz4BKp12S0qKi5tp8fs-98" value="" style="edgeStyle=orthogonalEdgeStyle;rounded=0;orthogonalLoop=1;jettySize=auto;html=1;" parent="1" source="sbz4BKp12S0qKi5tp8fs-99" target="sbz4BKp12S0qKi5tp8fs-101" edge="1">
          <mxGeometry relative="1" as="geometry" />
        </mxCell>
        <mxCell id="sbz4BKp12S0qKi5tp8fs-99" value="&lt;font style=&quot;font-size: 24px;&quot;&gt;c&lt;/font&gt;" style="rounded=0;whiteSpace=wrap;html=1;" parent="1" vertex="1">
          <mxGeometry x="400" y="2863" width="120" height="60" as="geometry" />
        </mxCell>
        <mxCell id="sbz4BKp12S0qKi5tp8fs-100" value="" style="edgeStyle=orthogonalEdgeStyle;rounded=0;orthogonalLoop=1;jettySize=auto;html=1;" parent="1" source="sbz4BKp12S0qKi5tp8fs-101" edge="1">
          <mxGeometry relative="1" as="geometry">
            <mxPoint x="750" y="2893" as="targetPoint" />
          </mxGeometry>
        </mxCell>
        <mxCell id="sbz4BKp12S0qKi5tp8fs-101" value="&lt;font style=&quot;font-size: 24px;&quot;&gt;D&lt;/font&gt;" style="rounded=0;whiteSpace=wrap;html=1;" parent="1" vertex="1">
          <mxGeometry x="570" y="2863" width="120" height="60" as="geometry" />
        </mxCell>
        <mxCell id="sbz4BKp12S0qKi5tp8fs-117" value="" style="edgeStyle=orthogonalEdgeStyle;rounded=0;orthogonalLoop=1;jettySize=auto;html=1;" parent="1" source="sbz4BKp12S0qKi5tp8fs-103" target="sbz4BKp12S0qKi5tp8fs-114" edge="1">
          <mxGeometry relative="1" as="geometry" />
        </mxCell>
        <mxCell id="sbz4BKp12S0qKi5tp8fs-103" value="&lt;font style=&quot;font-size: 24px;&quot;&gt;E&lt;/font&gt;" style="rounded=0;whiteSpace=wrap;html=1;" parent="1" vertex="1">
          <mxGeometry x="750" y="2863" width="120" height="60" as="geometry" />
        </mxCell>
        <mxCell id="sbz4BKp12S0qKi5tp8fs-113" style="edgeStyle=orthogonalEdgeStyle;rounded=0;orthogonalLoop=1;jettySize=auto;html=1;exitX=0.5;exitY=1;exitDx=0;exitDy=0;" parent="1" source="sbz4BKp12S0qKi5tp8fs-92" target="sbz4BKp12S0qKi5tp8fs-92" edge="1">
          <mxGeometry relative="1" as="geometry" />
        </mxCell>
        <mxCell id="sbz4BKp12S0qKi5tp8fs-114" value="&lt;font style=&quot;font-size: 24px;&quot;&gt;NULL&lt;/font&gt;" style="text;html=1;strokeColor=none;fillColor=none;align=center;verticalAlign=middle;whiteSpace=wrap;rounded=0;" parent="1" vertex="1">
          <mxGeometry x="930" y="2878" width="60" height="30" as="geometry" />
        </mxCell>
        <mxCell id="sbz4BKp12S0qKi5tp8fs-119" value="&lt;font style=&quot;font-size: 24px;&quot;&gt;remove&lt;br&gt;&lt;/font&gt;" style="text;html=1;strokeColor=none;fillColor=none;align=center;verticalAlign=middle;whiteSpace=wrap;rounded=0;" parent="1" vertex="1">
          <mxGeometry x="710" y="2800" width="60" height="30" as="geometry" />
        </mxCell>
        <mxCell id="sbz4BKp12S0qKi5tp8fs-120" value="" style="rounded=0;whiteSpace=wrap;html=1;" parent="1" vertex="1">
          <mxGeometry x="575" y="3020" width="330" height="130" as="geometry" />
        </mxCell>
        <mxCell id="sbz4BKp12S0qKi5tp8fs-121" value="&lt;font style=&quot;font-size: 24px;&quot;&gt;FAST&lt;br&gt;&lt;/font&gt;" style="text;html=1;strokeColor=none;fillColor=none;align=center;verticalAlign=middle;whiteSpace=wrap;rounded=0;" parent="1" vertex="1">
          <mxGeometry x="800" y="3020" width="60" height="30" as="geometry" />
        </mxCell>
        <mxCell id="sbz4BKp12S0qKi5tp8fs-122" value="&lt;font style=&quot;font-size: 24px;&quot;&gt;SLOW&lt;br&gt;&lt;/font&gt;" style="text;html=1;strokeColor=none;fillColor=none;align=center;verticalAlign=middle;whiteSpace=wrap;rounded=0;" parent="1" vertex="1">
          <mxGeometry x="440" y="3010" width="60" height="30" as="geometry" />
        </mxCell>
        <mxCell id="sbz4BKp12S0qKi5tp8fs-123" value="" style="edgeStyle=orthogonalEdgeStyle;rounded=0;orthogonalLoop=1;jettySize=auto;html=1;" parent="1" source="sbz4BKp12S0qKi5tp8fs-124" target="sbz4BKp12S0qKi5tp8fs-126" edge="1">
          <mxGeometry relative="1" as="geometry" />
        </mxCell>
        <mxCell id="sbz4BKp12S0qKi5tp8fs-124" value="&lt;font style=&quot;font-size: 24px;&quot;&gt;a&lt;/font&gt;" style="rounded=0;whiteSpace=wrap;html=1;" parent="1" vertex="1">
          <mxGeometry x="80" y="3053" width="120" height="60" as="geometry" />
        </mxCell>
        <mxCell id="sbz4BKp12S0qKi5tp8fs-125" value="" style="edgeStyle=orthogonalEdgeStyle;rounded=0;orthogonalLoop=1;jettySize=auto;html=1;" parent="1" source="sbz4BKp12S0qKi5tp8fs-126" target="sbz4BKp12S0qKi5tp8fs-128" edge="1">
          <mxGeometry relative="1" as="geometry" />
        </mxCell>
        <mxCell id="sbz4BKp12S0qKi5tp8fs-126" value="&lt;font style=&quot;font-size: 24px;&quot;&gt;b&lt;/font&gt;" style="rounded=0;whiteSpace=wrap;html=1;" parent="1" vertex="1">
          <mxGeometry x="230" y="3053" width="120" height="60" as="geometry" />
        </mxCell>
        <mxCell id="sbz4BKp12S0qKi5tp8fs-128" value="&lt;font style=&quot;font-size: 24px;&quot;&gt;c&lt;/font&gt;" style="rounded=0;whiteSpace=wrap;html=1;" parent="1" vertex="1">
          <mxGeometry x="410" y="3053" width="120" height="60" as="geometry" />
        </mxCell>
        <mxCell id="sbz4BKp12S0qKi5tp8fs-129" value="" style="edgeStyle=orthogonalEdgeStyle;rounded=0;orthogonalLoop=1;jettySize=auto;html=1;" parent="1" source="sbz4BKp12S0qKi5tp8fs-130" edge="1">
          <mxGeometry relative="1" as="geometry">
            <mxPoint x="760" y="3083" as="targetPoint" />
          </mxGeometry>
        </mxCell>
        <mxCell id="sbz4BKp12S0qKi5tp8fs-130" value="&lt;font style=&quot;font-size: 24px;&quot;&gt;D&lt;/font&gt;" style="rounded=0;whiteSpace=wrap;html=1;" parent="1" vertex="1">
          <mxGeometry x="580" y="3053" width="120" height="60" as="geometry" />
        </mxCell>
        <mxCell id="sbz4BKp12S0qKi5tp8fs-136" style="edgeStyle=orthogonalEdgeStyle;rounded=0;orthogonalLoop=1;jettySize=auto;html=1;exitX=0.5;exitY=1;exitDx=0;exitDy=0;entryX=0.5;entryY=1;entryDx=0;entryDy=0;" parent="1" source="sbz4BKp12S0qKi5tp8fs-132" target="sbz4BKp12S0qKi5tp8fs-124" edge="1">
          <mxGeometry relative="1" as="geometry">
            <Array as="points">
              <mxPoint x="820" y="3260" />
              <mxPoint x="140" y="3260" />
            </Array>
          </mxGeometry>
        </mxCell>
        <mxCell id="sbz4BKp12S0qKi5tp8fs-132" value="&lt;font style=&quot;font-size: 24px;&quot;&gt;E&lt;/font&gt;" style="rounded=0;whiteSpace=wrap;html=1;" parent="1" vertex="1">
          <mxGeometry x="760" y="3053" width="120" height="60" as="geometry" />
        </mxCell>
        <mxCell id="sbz4BKp12S0qKi5tp8fs-133" style="edgeStyle=orthogonalEdgeStyle;rounded=0;orthogonalLoop=1;jettySize=auto;html=1;exitX=0.5;exitY=1;exitDx=0;exitDy=0;" parent="1" source="sbz4BKp12S0qKi5tp8fs-121" target="sbz4BKp12S0qKi5tp8fs-121" edge="1">
          <mxGeometry relative="1" as="geometry" />
        </mxCell>
        <mxCell id="sbz4BKp12S0qKi5tp8fs-138" value="&lt;font style=&quot;font-size: 24px;&quot;&gt;HEAD&lt;br&gt;&lt;/font&gt;" style="text;html=1;strokeColor=none;fillColor=none;align=center;verticalAlign=middle;whiteSpace=wrap;rounded=0;" parent="1" vertex="1">
          <mxGeometry x="610" y="3023" width="60" height="30" as="geometry" />
        </mxCell>
        <mxCell id="sbz4BKp12S0qKi5tp8fs-139" value="&lt;font style=&quot;font-size: 24px;&quot;&gt;remove&lt;br&gt;&lt;/font&gt;" style="text;html=1;strokeColor=none;fillColor=none;align=center;verticalAlign=middle;whiteSpace=wrap;rounded=0;" parent="1" vertex="1">
          <mxGeometry x="695" y="2980" width="60" height="30" as="geometry" />
        </mxCell>
        <mxCell id="sbz4BKp12S0qKi5tp8fs-141" value="" style="edgeStyle=orthogonalEdgeStyle;rounded=0;orthogonalLoop=1;jettySize=auto;html=1;" parent="1" source="sbz4BKp12S0qKi5tp8fs-140" target="sbz4BKp12S0qKi5tp8fs-95" edge="1">
          <mxGeometry relative="1" as="geometry" />
        </mxCell>
        <mxCell id="sbz4BKp12S0qKi5tp8fs-140" value="&lt;font style=&quot;font-size: 24px;&quot;&gt;NULL&lt;/font&gt;" style="text;html=1;strokeColor=none;fillColor=none;align=center;verticalAlign=middle;whiteSpace=wrap;rounded=0;" parent="1" vertex="1">
          <mxGeometry x="-40" y="2878" width="60" height="30" as="geometry" />
        </mxCell>
        <mxCell id="sbz4BKp12S0qKi5tp8fs-143" value="" style="edgeStyle=orthogonalEdgeStyle;rounded=0;orthogonalLoop=1;jettySize=auto;html=1;" parent="1" source="sbz4BKp12S0qKi5tp8fs-144" target="sbz4BKp12S0qKi5tp8fs-146" edge="1">
          <mxGeometry relative="1" as="geometry" />
        </mxCell>
        <mxCell id="sbz4BKp12S0qKi5tp8fs-144" value="&lt;font style=&quot;font-size: 24px;&quot;&gt;1&lt;/font&gt;" style="rounded=0;whiteSpace=wrap;html=1;" parent="1" vertex="1">
          <mxGeometry x="30" y="3470" width="120" height="60" as="geometry" />
        </mxCell>
        <mxCell id="sbz4BKp12S0qKi5tp8fs-145" value="" style="edgeStyle=orthogonalEdgeStyle;rounded=0;orthogonalLoop=1;jettySize=auto;html=1;" parent="1" source="sbz4BKp12S0qKi5tp8fs-146" target="sbz4BKp12S0qKi5tp8fs-148" edge="1">
          <mxGeometry relative="1" as="geometry" />
        </mxCell>
        <mxCell id="sbz4BKp12S0qKi5tp8fs-146" value="&lt;font style=&quot;font-size: 24px;&quot;&gt;1&lt;/font&gt;" style="rounded=0;whiteSpace=wrap;html=1;" parent="1" vertex="1">
          <mxGeometry x="180" y="3470" width="120" height="60" as="geometry" />
        </mxCell>
        <mxCell id="sbz4BKp12S0qKi5tp8fs-147" value="" style="edgeStyle=orthogonalEdgeStyle;rounded=0;orthogonalLoop=1;jettySize=auto;html=1;" parent="1" source="sbz4BKp12S0qKi5tp8fs-148" target="sbz4BKp12S0qKi5tp8fs-150" edge="1">
          <mxGeometry relative="1" as="geometry" />
        </mxCell>
        <mxCell id="sbz4BKp12S0qKi5tp8fs-148" value="&lt;font style=&quot;font-size: 24px;&quot;&gt;1&lt;/font&gt;" style="rounded=0;whiteSpace=wrap;html=1;" parent="1" vertex="1">
          <mxGeometry x="360" y="3470" width="120" height="60" as="geometry" />
        </mxCell>
        <mxCell id="sbz4BKp12S0qKi5tp8fs-149" value="" style="edgeStyle=orthogonalEdgeStyle;rounded=0;orthogonalLoop=1;jettySize=auto;html=1;" parent="1" source="sbz4BKp12S0qKi5tp8fs-150" edge="1">
          <mxGeometry relative="1" as="geometry">
            <mxPoint x="710" y="3500" as="targetPoint" />
          </mxGeometry>
        </mxCell>
        <mxCell id="sbz4BKp12S0qKi5tp8fs-150" value="&lt;font style=&quot;font-size: 24px;&quot;&gt;2&lt;/font&gt;" style="rounded=0;whiteSpace=wrap;html=1;" parent="1" vertex="1">
          <mxGeometry x="530" y="3470" width="120" height="60" as="geometry" />
        </mxCell>
        <mxCell id="sbz4BKp12S0qKi5tp8fs-152" value="&lt;font style=&quot;font-size: 24px;&quot;&gt;3&lt;/font&gt;" style="rounded=0;whiteSpace=wrap;html=1;" parent="1" vertex="1">
          <mxGeometry x="707" y="3470" width="120" height="60" as="geometry" />
        </mxCell>
        <mxCell id="sbz4BKp12S0qKi5tp8fs-154" value="" style="edgeStyle=orthogonalEdgeStyle;rounded=0;orthogonalLoop=1;jettySize=auto;html=1;" parent="1" source="sbz4BKp12S0qKi5tp8fs-153" target="sbz4BKp12S0qKi5tp8fs-144" edge="1">
          <mxGeometry relative="1" as="geometry" />
        </mxCell>
        <mxCell id="sbz4BKp12S0qKi5tp8fs-153" value="&lt;font style=&quot;font-size: 24px;&quot;&gt;dummy&lt;/font&gt;" style="rounded=0;whiteSpace=wrap;html=1;" parent="1" vertex="1">
          <mxGeometry x="-160" y="3470" width="120" height="60" as="geometry" />
        </mxCell>
        <mxCell id="sbz4BKp12S0qKi5tp8fs-155" value="&lt;font style=&quot;font-size: 24px;&quot;&gt;cur&lt;/font&gt;" style="text;html=1;align=center;verticalAlign=middle;resizable=0;points=[];autosize=1;strokeColor=none;fillColor=none;" parent="1" vertex="1">
          <mxGeometry x="-130" y="3415" width="60" height="40" as="geometry" />
        </mxCell>
        <mxCell id="sbz4BKp12S0qKi5tp8fs-159" value="" style="ellipse;whiteSpace=wrap;html=1;" parent="1" vertex="1">
          <mxGeometry x="422.5" y="3670" width="172.5" height="150" as="geometry" />
        </mxCell>
        <mxCell id="sbz4BKp12S0qKi5tp8fs-160" value="" style="endArrow=none;html=1;rounded=0;" parent="1" source="sbz4BKp12S0qKi5tp8fs-167" edge="1">
          <mxGeometry width="50" height="50" relative="1" as="geometry">
            <mxPoint x="280" y="3670" as="sourcePoint" />
            <mxPoint x="505" y="3670" as="targetPoint" />
          </mxGeometry>
        </mxCell>
        <mxCell id="sbz4BKp12S0qKi5tp8fs-161" value="X" style="text;html=1;align=center;verticalAlign=middle;resizable=0;points=[];autosize=1;strokeColor=none;fillColor=none;" parent="1" vertex="1">
          <mxGeometry x="370" y="3640" width="30" height="30" as="geometry" />
        </mxCell>
        <mxCell id="sbz4BKp12S0qKi5tp8fs-162" value="" style="shape=waypoint;sketch=0;fillStyle=solid;size=6;pointerEvents=1;points=[];fillColor=none;resizable=0;rotatable=0;perimeter=centerPerimeter;snapToPoint=1;" parent="1" vertex="1">
          <mxGeometry x="499" y="3810" width="20" height="20" as="geometry" />
        </mxCell>
        <mxCell id="sbz4BKp12S0qKi5tp8fs-163" value="O" style="text;html=1;align=center;verticalAlign=middle;resizable=0;points=[];autosize=1;strokeColor=none;fillColor=none;" parent="1" vertex="1">
          <mxGeometry x="494" y="3830" width="30" height="30" as="geometry" />
        </mxCell>
        <mxCell id="sbz4BKp12S0qKi5tp8fs-164" value="z" style="text;html=1;align=center;verticalAlign=middle;resizable=0;points=[];autosize=1;strokeColor=none;fillColor=none;" parent="1" vertex="1">
          <mxGeometry x="395" y="3730" width="30" height="30" as="geometry" />
        </mxCell>
        <mxCell id="sbz4BKp12S0qKi5tp8fs-165" value="y" style="text;html=1;align=center;verticalAlign=middle;resizable=0;points=[];autosize=1;strokeColor=none;fillColor=none;" parent="1" vertex="1">
          <mxGeometry x="575" y="3680" width="30" height="30" as="geometry" />
        </mxCell>
        <mxCell id="sbz4BKp12S0qKi5tp8fs-168" value="" style="endArrow=none;html=1;rounded=0;" parent="1" target="sbz4BKp12S0qKi5tp8fs-167" edge="1">
          <mxGeometry width="50" height="50" relative="1" as="geometry">
            <mxPoint x="280" y="3670" as="sourcePoint" />
            <mxPoint x="505" y="3670" as="targetPoint" />
          </mxGeometry>
        </mxCell>
        <mxCell id="sbz4BKp12S0qKi5tp8fs-167" value="" style="shape=waypoint;sketch=0;fillStyle=solid;size=6;pointerEvents=1;points=[];fillColor=none;resizable=0;rotatable=0;perimeter=centerPerimeter;snapToPoint=1;" parent="1" vertex="1">
          <mxGeometry x="498.75" y="3660" width="20" height="20" as="geometry" />
        </mxCell>
        <mxCell id="sbz4BKp12S0qKi5tp8fs-169" value="entry" style="text;html=1;align=center;verticalAlign=middle;resizable=0;points=[];autosize=1;strokeColor=none;fillColor=none;" parent="1" vertex="1">
          <mxGeometry x="484" y="3640" width="50" height="30" as="geometry" />
        </mxCell>
        <mxCell id="sbz4BKp12S0qKi5tp8fs-170" value="" style="shape=crossbar;whiteSpace=wrap;html=1;rounded=1;" parent="1" vertex="1">
          <mxGeometry x="355" y="3950" width="405" height="20" as="geometry" />
        </mxCell>
        <mxCell id="sbz4BKp12S0qKi5tp8fs-171" value="400m" style="text;html=1;align=center;verticalAlign=middle;resizable=0;points=[];autosize=1;strokeColor=none;fillColor=none;" parent="1" vertex="1">
          <mxGeometry x="525" y="3970" width="50" height="30" as="geometry" />
        </mxCell>
        <mxCell id="sbz4BKp12S0qKi5tp8fs-172" value="小快" style="text;html=1;align=center;verticalAlign=middle;resizable=0;points=[];autosize=1;strokeColor=none;fillColor=none;" parent="1" vertex="1">
          <mxGeometry x="455" y="3920" width="50" height="30" as="geometry" />
        </mxCell>
        <mxCell id="sbz4BKp12S0qKi5tp8fs-173" value="小慢" style="text;html=1;align=center;verticalAlign=middle;resizable=0;points=[];autosize=1;strokeColor=none;fillColor=none;" parent="1" vertex="1">
          <mxGeometry x="532.5" y="3920" width="50" height="30" as="geometry" />
        </mxCell>
        <mxCell id="sbz4BKp12S0qKi5tp8fs-174" value="" style="shape=waypoint;sketch=0;fillStyle=solid;size=6;pointerEvents=1;points=[];fillColor=none;resizable=0;rotatable=0;perimeter=centerPerimeter;snapToPoint=1;" parent="1" vertex="1">
          <mxGeometry x="470" y="3950" width="20" height="20" as="geometry" />
        </mxCell>
        <mxCell id="sbz4BKp12S0qKi5tp8fs-175" value="x" style="text;html=1;align=center;verticalAlign=middle;resizable=0;points=[];autosize=1;strokeColor=none;fillColor=none;" parent="1" vertex="1">
          <mxGeometry x="405" y="3930" width="30" height="30" as="geometry" />
        </mxCell>
        <mxCell id="sbz4BKp12S0qKi5tp8fs-176" value="" style="shape=waypoint;sketch=0;fillStyle=solid;size=6;pointerEvents=1;points=[];fillColor=none;resizable=0;rotatable=0;perimeter=centerPerimeter;snapToPoint=1;" parent="1" vertex="1">
          <mxGeometry x="547.5" y="3950" width="20" height="20" as="geometry" />
        </mxCell>
        <mxCell id="DiJdIw4fKwJYBwjFMf2u-16" value="" style="edgeStyle=orthogonalEdgeStyle;rounded=0;orthogonalLoop=1;jettySize=auto;html=1;" edge="1" parent="1" source="sbz4BKp12S0qKi5tp8fs-180" target="sbz4BKp12S0qKi5tp8fs-182">
          <mxGeometry relative="1" as="geometry" />
        </mxCell>
        <mxCell id="sbz4BKp12S0qKi5tp8fs-180" value="&lt;font style=&quot;font-size: 24px;&quot;&gt;1&lt;/font&gt;" style="rounded=0;whiteSpace=wrap;html=1;" parent="1" vertex="1">
          <mxGeometry x="72.5" y="4330" width="117.5" height="60" as="geometry" />
        </mxCell>
        <mxCell id="sbz4BKp12S0qKi5tp8fs-181" value="" style="edgeStyle=orthogonalEdgeStyle;rounded=0;orthogonalLoop=1;jettySize=auto;html=1;" parent="1" source="sbz4BKp12S0qKi5tp8fs-182" target="sbz4BKp12S0qKi5tp8fs-184" edge="1">
          <mxGeometry relative="1" as="geometry" />
        </mxCell>
        <mxCell id="sbz4BKp12S0qKi5tp8fs-182" value="&lt;font style=&quot;font-size: 24px;&quot;&gt;2&lt;/font&gt;" style="rounded=0;whiteSpace=wrap;html=1;" parent="1" vertex="1">
          <mxGeometry x="240" y="4330" width="130" height="60" as="geometry" />
        </mxCell>
        <mxCell id="sbz4BKp12S0qKi5tp8fs-183" value="" style="edgeStyle=orthogonalEdgeStyle;rounded=0;orthogonalLoop=1;jettySize=auto;html=1;" parent="1" source="sbz4BKp12S0qKi5tp8fs-184" target="sbz4BKp12S0qKi5tp8fs-186" edge="1">
          <mxGeometry relative="1" as="geometry" />
        </mxCell>
        <mxCell id="sbz4BKp12S0qKi5tp8fs-184" value="&lt;font style=&quot;font-size: 24px;&quot;&gt;3&lt;/font&gt;" style="rounded=0;whiteSpace=wrap;html=1;" parent="1" vertex="1">
          <mxGeometry x="423" y="4330" width="120" height="60" as="geometry" />
        </mxCell>
        <mxCell id="sbz4BKp12S0qKi5tp8fs-185" value="" style="edgeStyle=orthogonalEdgeStyle;rounded=0;orthogonalLoop=1;jettySize=auto;html=1;" parent="1" source="sbz4BKp12S0qKi5tp8fs-186" edge="1">
          <mxGeometry relative="1" as="geometry">
            <mxPoint x="773" y="4360" as="targetPoint" />
          </mxGeometry>
        </mxCell>
        <mxCell id="sbz4BKp12S0qKi5tp8fs-186" value="&lt;font style=&quot;font-size: 24px;&quot;&gt;4&lt;/font&gt;" style="rounded=0;whiteSpace=wrap;html=1;" parent="1" vertex="1">
          <mxGeometry x="593" y="4330" width="120" height="60" as="geometry" />
        </mxCell>
        <mxCell id="sbz4BKp12S0qKi5tp8fs-187" value="&lt;font style=&quot;font-size: 24px;&quot;&gt;5&lt;/font&gt;" style="rounded=0;whiteSpace=wrap;html=1;" parent="1" vertex="1">
          <mxGeometry x="770" y="4330" width="120" height="60" as="geometry" />
        </mxCell>
        <mxCell id="sbz4BKp12S0qKi5tp8fs-505" value="" style="edgeStyle=orthogonalEdgeStyle;rounded=0;orthogonalLoop=1;jettySize=auto;html=1;" parent="1" source="sbz4BKp12S0qKi5tp8fs-211" target="sbz4BKp12S0qKi5tp8fs-213" edge="1">
          <mxGeometry relative="1" as="geometry" />
        </mxCell>
        <mxCell id="sbz4BKp12S0qKi5tp8fs-211" value="&lt;font style=&quot;font-size: 24px;&quot;&gt;1&lt;/font&gt;" style="rounded=0;whiteSpace=wrap;html=1;" parent="1" vertex="1">
          <mxGeometry x="80" y="5310" width="120" height="60" as="geometry" />
        </mxCell>
        <mxCell id="sbz4BKp12S0qKi5tp8fs-507" style="edgeStyle=orthogonalEdgeStyle;rounded=0;orthogonalLoop=1;jettySize=auto;html=1;" parent="1" source="sbz4BKp12S0qKi5tp8fs-213" edge="1">
          <mxGeometry relative="1" as="geometry">
            <mxPoint x="335" y="5500" as="targetPoint" />
          </mxGeometry>
        </mxCell>
        <mxCell id="sbz4BKp12S0qKi5tp8fs-213" value="&lt;font style=&quot;font-size: 24px;&quot;&gt;2&lt;/font&gt;" style="rounded=0;whiteSpace=wrap;html=1;" parent="1" vertex="1">
          <mxGeometry x="270" y="5310" width="130" height="60" as="geometry" />
        </mxCell>
        <mxCell id="sbz4BKp12S0qKi5tp8fs-214" value="" style="edgeStyle=orthogonalEdgeStyle;rounded=0;orthogonalLoop=1;jettySize=auto;html=1;" parent="1" source="sbz4BKp12S0qKi5tp8fs-215" target="sbz4BKp12S0qKi5tp8fs-217" edge="1">
          <mxGeometry relative="1" as="geometry" />
        </mxCell>
        <mxCell id="sbz4BKp12S0qKi5tp8fs-215" value="&lt;font style=&quot;font-size: 24px;&quot;&gt;3&lt;/font&gt;" style="rounded=0;whiteSpace=wrap;html=1;" parent="1" vertex="1">
          <mxGeometry x="453" y="5310" width="120" height="60" as="geometry" />
        </mxCell>
        <mxCell id="sbz4BKp12S0qKi5tp8fs-216" value="" style="edgeStyle=orthogonalEdgeStyle;rounded=0;orthogonalLoop=1;jettySize=auto;html=1;" parent="1" source="sbz4BKp12S0qKi5tp8fs-217" edge="1">
          <mxGeometry relative="1" as="geometry">
            <mxPoint x="803" y="5340" as="targetPoint" />
          </mxGeometry>
        </mxCell>
        <mxCell id="sbz4BKp12S0qKi5tp8fs-217" value="&lt;font style=&quot;font-size: 24px;&quot;&gt;4&lt;/font&gt;" style="rounded=0;whiteSpace=wrap;html=1;" parent="1" vertex="1">
          <mxGeometry x="623" y="5310" width="120" height="60" as="geometry" />
        </mxCell>
        <mxCell id="sbz4BKp12S0qKi5tp8fs-220" value="" style="edgeStyle=orthogonalEdgeStyle;rounded=0;orthogonalLoop=1;jettySize=auto;html=1;" parent="1" source="sbz4BKp12S0qKi5tp8fs-218" target="sbz4BKp12S0qKi5tp8fs-219" edge="1">
          <mxGeometry relative="1" as="geometry" />
        </mxCell>
        <mxCell id="sbz4BKp12S0qKi5tp8fs-218" value="&lt;font style=&quot;font-size: 24px;&quot;&gt;5&lt;/font&gt;" style="rounded=0;whiteSpace=wrap;html=1;" parent="1" vertex="1">
          <mxGeometry x="800" y="5310" width="120" height="60" as="geometry" />
        </mxCell>
        <mxCell id="sbz4BKp12S0qKi5tp8fs-219" value="&lt;font style=&quot;font-size: 24px;&quot;&gt;6&lt;/font&gt;" style="rounded=0;whiteSpace=wrap;html=1;" parent="1" vertex="1">
          <mxGeometry x="970" y="5310" width="120" height="60" as="geometry" />
        </mxCell>
        <mxCell id="sbz4BKp12S0qKi5tp8fs-223" value="&lt;font style=&quot;font-size: 18px;&quot;&gt;right&lt;/font&gt;" style="text;html=1;strokeColor=none;fillColor=none;align=center;verticalAlign=middle;whiteSpace=wrap;rounded=0;" parent="1" vertex="1">
          <mxGeometry x="830" y="5270" width="60" height="30" as="geometry" />
        </mxCell>
        <mxCell id="sbz4BKp12S0qKi5tp8fs-508" style="edgeStyle=orthogonalEdgeStyle;rounded=0;orthogonalLoop=1;jettySize=auto;html=1;entryX=0;entryY=0.75;entryDx=0;entryDy=0;" parent="1" source="sbz4BKp12S0qKi5tp8fs-224" target="sbz4BKp12S0qKi5tp8fs-213" edge="1">
          <mxGeometry relative="1" as="geometry" />
        </mxCell>
        <mxCell id="sbz4BKp12S0qKi5tp8fs-224" value="&lt;font style=&quot;font-size: 24px;&quot;&gt;1&lt;/font&gt;" style="rounded=0;whiteSpace=wrap;html=1;" parent="1" vertex="1">
          <mxGeometry x="80" y="5500" width="120" height="60" as="geometry" />
        </mxCell>
        <mxCell id="sbz4BKp12S0qKi5tp8fs-226" value="" style="edgeStyle=orthogonalEdgeStyle;rounded=0;orthogonalLoop=1;jettySize=auto;html=1;" parent="1" source="sbz4BKp12S0qKi5tp8fs-225" target="sbz4BKp12S0qKi5tp8fs-224" edge="1">
          <mxGeometry relative="1" as="geometry" />
        </mxCell>
        <mxCell id="sbz4BKp12S0qKi5tp8fs-225" value="&lt;font style=&quot;font-size: 24px;&quot;&gt;dummy&lt;/font&gt;" style="rounded=0;whiteSpace=wrap;html=1;" parent="1" vertex="1">
          <mxGeometry x="-80" y="5500" width="120" height="60" as="geometry" />
        </mxCell>
        <mxCell id="sbz4BKp12S0qKi5tp8fs-239" style="edgeStyle=orthogonalEdgeStyle;rounded=0;orthogonalLoop=1;jettySize=auto;html=1;entryX=0;entryY=0.5;entryDx=0;entryDy=0;" parent="1" source="sbz4BKp12S0qKi5tp8fs-232" target="sbz4BKp12S0qKi5tp8fs-237" edge="1">
          <mxGeometry relative="1" as="geometry" />
        </mxCell>
        <mxCell id="sbz4BKp12S0qKi5tp8fs-232" value="&lt;font style=&quot;font-size: 24px;&quot;&gt;1&lt;/font&gt;" style="rounded=0;whiteSpace=wrap;html=1;" parent="1" vertex="1">
          <mxGeometry x="80" y="5650" width="120" height="60" as="geometry" />
        </mxCell>
        <mxCell id="sbz4BKp12S0qKi5tp8fs-233" value="" style="edgeStyle=orthogonalEdgeStyle;rounded=0;orthogonalLoop=1;jettySize=auto;html=1;" parent="1" source="sbz4BKp12S0qKi5tp8fs-234" target="sbz4BKp12S0qKi5tp8fs-232" edge="1">
          <mxGeometry relative="1" as="geometry" />
        </mxCell>
        <mxCell id="sbz4BKp12S0qKi5tp8fs-234" value="&lt;font style=&quot;font-size: 24px;&quot;&gt;dummy&lt;/font&gt;" style="rounded=0;whiteSpace=wrap;html=1;" parent="1" vertex="1">
          <mxGeometry x="-80" y="5650" width="120" height="60" as="geometry" />
        </mxCell>
        <mxCell id="sbz4BKp12S0qKi5tp8fs-235" value="&lt;font style=&quot;font-size: 24px;&quot;&gt;2&lt;/font&gt;" style="rounded=0;whiteSpace=wrap;html=1;" parent="1" vertex="1">
          <mxGeometry x="438.75" y="5650" width="130" height="60" as="geometry" />
        </mxCell>
        <mxCell id="sbz4BKp12S0qKi5tp8fs-236" value="&lt;font style=&quot;font-size: 24px;&quot;&gt;cur&lt;/font&gt;" style="text;html=1;strokeColor=none;fillColor=none;align=center;verticalAlign=middle;whiteSpace=wrap;rounded=0;" parent="1" vertex="1">
          <mxGeometry x="990" y="5250" width="60" height="30" as="geometry" />
        </mxCell>
        <mxCell id="sbz4BKp12S0qKi5tp8fs-238" value="" style="edgeStyle=orthogonalEdgeStyle;rounded=0;orthogonalLoop=1;jettySize=auto;html=1;" parent="1" source="sbz4BKp12S0qKi5tp8fs-237" target="sbz4BKp12S0qKi5tp8fs-235" edge="1">
          <mxGeometry relative="1" as="geometry" />
        </mxCell>
        <mxCell id="sbz4BKp12S0qKi5tp8fs-237" value="&lt;font style=&quot;font-size: 24px;&quot;&gt;3&lt;/font&gt;" style="rounded=0;whiteSpace=wrap;html=1;" parent="1" vertex="1">
          <mxGeometry x="265" y="5650" width="120" height="60" as="geometry" />
        </mxCell>
        <mxCell id="sbz4BKp12S0qKi5tp8fs-264" value="" style="edgeStyle=orthogonalEdgeStyle;rounded=0;orthogonalLoop=1;jettySize=auto;html=1;" parent="1" source="sbz4BKp12S0qKi5tp8fs-254" target="sbz4BKp12S0qKi5tp8fs-263" edge="1">
          <mxGeometry relative="1" as="geometry" />
        </mxCell>
        <mxCell id="sbz4BKp12S0qKi5tp8fs-254" value="&lt;font style=&quot;font-size: 24px;&quot;&gt;1&lt;/font&gt;" style="rounded=0;whiteSpace=wrap;html=1;" parent="1" vertex="1">
          <mxGeometry x="75.63" y="5760" width="120" height="60" as="geometry" />
        </mxCell>
        <mxCell id="sbz4BKp12S0qKi5tp8fs-255" value="" style="edgeStyle=orthogonalEdgeStyle;rounded=0;orthogonalLoop=1;jettySize=auto;html=1;" parent="1" source="sbz4BKp12S0qKi5tp8fs-256" target="sbz4BKp12S0qKi5tp8fs-254" edge="1">
          <mxGeometry relative="1" as="geometry" />
        </mxCell>
        <mxCell id="sbz4BKp12S0qKi5tp8fs-256" value="&lt;font style=&quot;font-size: 24px;&quot;&gt;dummy&lt;/font&gt;" style="rounded=0;whiteSpace=wrap;html=1;" parent="1" vertex="1">
          <mxGeometry x="-84.37" y="5760" width="120" height="60" as="geometry" />
        </mxCell>
        <mxCell id="sbz4BKp12S0qKi5tp8fs-257" value="&lt;font style=&quot;font-size: 24px;&quot;&gt;2&lt;/font&gt;" style="rounded=0;whiteSpace=wrap;html=1;" parent="1" vertex="1">
          <mxGeometry x="840" y="5760" width="130" height="60" as="geometry" />
        </mxCell>
        <mxCell id="sbz4BKp12S0qKi5tp8fs-258" value="" style="edgeStyle=orthogonalEdgeStyle;rounded=0;orthogonalLoop=1;jettySize=auto;html=1;" parent="1" source="sbz4BKp12S0qKi5tp8fs-259" target="sbz4BKp12S0qKi5tp8fs-257" edge="1">
          <mxGeometry relative="1" as="geometry" />
        </mxCell>
        <mxCell id="sbz4BKp12S0qKi5tp8fs-259" value="&lt;font style=&quot;font-size: 24px;&quot;&gt;3&lt;/font&gt;" style="rounded=0;whiteSpace=wrap;html=1;" parent="1" vertex="1">
          <mxGeometry x="670" y="5760" width="120" height="60" as="geometry" />
        </mxCell>
        <mxCell id="sbz4BKp12S0qKi5tp8fs-262" value="" style="edgeStyle=orthogonalEdgeStyle;rounded=0;orthogonalLoop=1;jettySize=auto;html=1;" parent="1" source="sbz4BKp12S0qKi5tp8fs-260" target="sbz4BKp12S0qKi5tp8fs-259" edge="1">
          <mxGeometry relative="1" as="geometry" />
        </mxCell>
        <mxCell id="sbz4BKp12S0qKi5tp8fs-260" value="&lt;font style=&quot;font-size: 24px;&quot;&gt;4&lt;/font&gt;" style="rounded=0;whiteSpace=wrap;html=1;" parent="1" vertex="1">
          <mxGeometry x="472.5" y="5760" width="120" height="60" as="geometry" />
        </mxCell>
        <mxCell id="sbz4BKp12S0qKi5tp8fs-267" value="" style="edgeStyle=orthogonalEdgeStyle;rounded=0;orthogonalLoop=1;jettySize=auto;html=1;" parent="1" source="sbz4BKp12S0qKi5tp8fs-263" target="sbz4BKp12S0qKi5tp8fs-260" edge="1">
          <mxGeometry relative="1" as="geometry" />
        </mxCell>
        <mxCell id="sbz4BKp12S0qKi5tp8fs-263" value="&lt;font style=&quot;font-size: 24px;&quot;&gt;5&lt;/font&gt;" style="rounded=0;whiteSpace=wrap;html=1;" parent="1" vertex="1">
          <mxGeometry x="275" y="5760" width="120" height="60" as="geometry" />
        </mxCell>
        <mxCell id="sbz4BKp12S0qKi5tp8fs-270" value="&lt;font style=&quot;font-size: 24px;&quot;&gt;P&lt;/font&gt;" style="text;html=1;strokeColor=none;fillColor=none;align=center;verticalAlign=middle;whiteSpace=wrap;rounded=0;" parent="1" vertex="1">
          <mxGeometry x="115" y="5450" width="60" height="30" as="geometry" />
        </mxCell>
        <mxCell id="sbz4BKp12S0qKi5tp8fs-271" value="&lt;font style=&quot;font-size: 24px;&quot;&gt;cur&lt;br&gt;&lt;/font&gt;" style="text;html=1;strokeColor=none;fillColor=none;align=center;verticalAlign=middle;whiteSpace=wrap;rounded=0;" parent="1" vertex="1">
          <mxGeometry x="105" y="4280" width="60" height="30" as="geometry" />
        </mxCell>
        <mxCell id="sbz4BKp12S0qKi5tp8fs-297" value="" style="rounded=0;whiteSpace=wrap;html=1;" parent="1" vertex="1">
          <mxGeometry x="80" y="6020" width="870" height="180" as="geometry" />
        </mxCell>
        <mxCell id="sbz4BKp12S0qKi5tp8fs-336" style="edgeStyle=orthogonalEdgeStyle;rounded=0;orthogonalLoop=1;jettySize=auto;html=1;exitX=1;exitY=0.5;exitDx=0;exitDy=0;entryX=0.5;entryY=1;entryDx=0;entryDy=0;" parent="1" source="sbz4BKp12S0qKi5tp8fs-299" target="sbz4BKp12S0qKi5tp8fs-303" edge="1">
          <mxGeometry relative="1" as="geometry">
            <Array as="points">
              <mxPoint x="260" y="6120" />
              <mxPoint x="260" y="6170" />
              <mxPoint x="533" y="6170" />
            </Array>
          </mxGeometry>
        </mxCell>
        <mxCell id="sbz4BKp12S0qKi5tp8fs-299" value="&lt;font style=&quot;font-size: 24px;&quot;&gt;1&lt;/font&gt;" style="rounded=0;whiteSpace=wrap;html=1;" parent="1" vertex="1">
          <mxGeometry x="100" y="6090" width="120" height="60" as="geometry" />
        </mxCell>
        <mxCell id="sbz4BKp12S0qKi5tp8fs-300" value="" style="edgeStyle=orthogonalEdgeStyle;rounded=0;orthogonalLoop=1;jettySize=auto;html=1;" parent="1" source="sbz4BKp12S0qKi5tp8fs-301" target="sbz4BKp12S0qKi5tp8fs-303" edge="1">
          <mxGeometry relative="1" as="geometry">
            <Array as="points">
              <mxPoint x="450" y="6120" />
              <mxPoint x="450" y="6120" />
            </Array>
          </mxGeometry>
        </mxCell>
        <mxCell id="sbz4BKp12S0qKi5tp8fs-301" value="&lt;font style=&quot;font-size: 24px;&quot;&gt;2&lt;/font&gt;" style="rounded=0;whiteSpace=wrap;html=1;" parent="1" vertex="1">
          <mxGeometry x="290" y="6090" width="130" height="60" as="geometry" />
        </mxCell>
        <mxCell id="sbz4BKp12S0qKi5tp8fs-302" value="" style="edgeStyle=orthogonalEdgeStyle;rounded=0;orthogonalLoop=1;jettySize=auto;html=1;" parent="1" source="sbz4BKp12S0qKi5tp8fs-303" target="sbz4BKp12S0qKi5tp8fs-305" edge="1">
          <mxGeometry relative="1" as="geometry" />
        </mxCell>
        <mxCell id="sbz4BKp12S0qKi5tp8fs-303" value="&lt;font style=&quot;font-size: 24px;&quot;&gt;3&lt;/font&gt;" style="rounded=0;whiteSpace=wrap;html=1;" parent="1" vertex="1">
          <mxGeometry x="473" y="6090" width="120" height="60" as="geometry" />
        </mxCell>
        <mxCell id="sbz4BKp12S0qKi5tp8fs-304" value="" style="edgeStyle=orthogonalEdgeStyle;rounded=0;orthogonalLoop=1;jettySize=auto;html=1;" parent="1" source="sbz4BKp12S0qKi5tp8fs-305" edge="1">
          <mxGeometry relative="1" as="geometry">
            <mxPoint x="823" y="6120" as="targetPoint" />
          </mxGeometry>
        </mxCell>
        <mxCell id="sbz4BKp12S0qKi5tp8fs-305" value="&lt;font style=&quot;font-size: 24px;&quot;&gt;4&lt;/font&gt;" style="rounded=0;whiteSpace=wrap;html=1;" parent="1" vertex="1">
          <mxGeometry x="643" y="6090" width="120" height="60" as="geometry" />
        </mxCell>
        <mxCell id="sbz4BKp12S0qKi5tp8fs-306" value="" style="edgeStyle=orthogonalEdgeStyle;rounded=0;orthogonalLoop=1;jettySize=auto;html=1;" parent="1" source="sbz4BKp12S0qKi5tp8fs-307" target="sbz4BKp12S0qKi5tp8fs-308" edge="1">
          <mxGeometry relative="1" as="geometry" />
        </mxCell>
        <mxCell id="sbz4BKp12S0qKi5tp8fs-307" value="&lt;font style=&quot;font-size: 24px;&quot;&gt;5&lt;/font&gt;" style="rounded=0;whiteSpace=wrap;html=1;" parent="1" vertex="1">
          <mxGeometry x="820" y="6090" width="120" height="60" as="geometry" />
        </mxCell>
        <mxCell id="sbz4BKp12S0qKi5tp8fs-308" value="&lt;font style=&quot;font-size: 24px;&quot;&gt;6&lt;/font&gt;" style="rounded=0;whiteSpace=wrap;html=1;" parent="1" vertex="1">
          <mxGeometry x="990" y="6090" width="120" height="60" as="geometry" />
        </mxCell>
        <mxCell id="sbz4BKp12S0qKi5tp8fs-309" value="&lt;font style=&quot;font-size: 18px;&quot;&gt;left&lt;/font&gt;" style="text;html=1;strokeColor=none;fillColor=none;align=center;verticalAlign=middle;whiteSpace=wrap;rounded=0;" parent="1" vertex="1">
          <mxGeometry x="122.5" y="5970" width="60" height="30" as="geometry" />
        </mxCell>
        <mxCell id="sbz4BKp12S0qKi5tp8fs-310" value="&lt;font style=&quot;font-size: 18px;&quot;&gt;right&lt;/font&gt;" style="text;html=1;strokeColor=none;fillColor=none;align=center;verticalAlign=middle;whiteSpace=wrap;rounded=0;" parent="1" vertex="1">
          <mxGeometry x="853" y="5960" width="60" height="30" as="geometry" />
        </mxCell>
        <mxCell id="sbz4BKp12S0qKi5tp8fs-311" value="" style="edgeStyle=orthogonalEdgeStyle;rounded=0;orthogonalLoop=1;jettySize=auto;html=1;" parent="1" source="sbz4BKp12S0qKi5tp8fs-312" target="sbz4BKp12S0qKi5tp8fs-299" edge="1">
          <mxGeometry relative="1" as="geometry">
            <Array as="points">
              <mxPoint x="70" y="6120" />
              <mxPoint x="70" y="6120" />
            </Array>
          </mxGeometry>
        </mxCell>
        <mxCell id="sbz4BKp12S0qKi5tp8fs-312" value="&lt;font style=&quot;font-size: 24px;&quot;&gt;dummy&lt;/font&gt;" style="rounded=0;whiteSpace=wrap;html=1;" parent="1" vertex="1">
          <mxGeometry x="-70" y="6090" width="120" height="60" as="geometry" />
        </mxCell>
        <mxCell id="sbz4BKp12S0qKi5tp8fs-314" value="&lt;font style=&quot;font-size: 24px;&quot;&gt;pre&lt;/font&gt;" style="text;html=1;align=center;verticalAlign=middle;resizable=0;points=[];autosize=1;strokeColor=none;fillColor=none;" parent="1" vertex="1">
          <mxGeometry x="-30" y="6030" width="60" height="40" as="geometry" />
        </mxCell>
        <mxCell id="sbz4BKp12S0qKi5tp8fs-315" value="&lt;font style=&quot;font-size: 24px;&quot;&gt;oriHead&lt;/font&gt;" style="text;html=1;align=center;verticalAlign=middle;resizable=0;points=[];autosize=1;strokeColor=none;fillColor=none;" parent="1" vertex="1">
          <mxGeometry x="110" y="6040" width="110" height="40" as="geometry" />
        </mxCell>
        <mxCell id="sbz4BKp12S0qKi5tp8fs-316" value="&lt;font style=&quot;font-size: 24px;&quot;&gt;cur&lt;/font&gt;" style="text;html=1;align=center;verticalAlign=middle;resizable=0;points=[];autosize=1;strokeColor=none;fillColor=none;" parent="1" vertex="1">
          <mxGeometry x="325" y="6050" width="60" height="40" as="geometry" />
        </mxCell>
        <mxCell id="sbz4BKp12S0qKi5tp8fs-363" style="edgeStyle=orthogonalEdgeStyle;rounded=0;orthogonalLoop=1;jettySize=auto;html=1;exitX=1;exitY=0.5;exitDx=0;exitDy=0;entryX=0.5;entryY=1;entryDx=0;entryDy=0;" parent="1" source="sbz4BKp12S0qKi5tp8fs-364" target="sbz4BKp12S0qKi5tp8fs-368" edge="1">
          <mxGeometry relative="1" as="geometry">
            <Array as="points">
              <mxPoint x="210" y="6340" />
              <mxPoint x="210" y="6390" />
              <mxPoint x="483" y="6390" />
            </Array>
          </mxGeometry>
        </mxCell>
        <mxCell id="sbz4BKp12S0qKi5tp8fs-364" value="&lt;font style=&quot;font-size: 24px;&quot;&gt;1&lt;/font&gt;" style="rounded=0;whiteSpace=wrap;html=1;" parent="1" vertex="1">
          <mxGeometry x="50" y="6310" width="120" height="60" as="geometry" />
        </mxCell>
        <mxCell id="sbz4BKp12S0qKi5tp8fs-382" style="edgeStyle=orthogonalEdgeStyle;rounded=0;orthogonalLoop=1;jettySize=auto;html=1;entryX=0;entryY=0.5;entryDx=0;entryDy=0;" parent="1" source="sbz4BKp12S0qKi5tp8fs-366" target="sbz4BKp12S0qKi5tp8fs-364" edge="1">
          <mxGeometry relative="1" as="geometry">
            <Array as="points">
              <mxPoint x="213" y="6330" />
              <mxPoint x="213" y="6240" />
              <mxPoint x="30" y="6240" />
              <mxPoint x="30" y="6340" />
            </Array>
          </mxGeometry>
        </mxCell>
        <mxCell id="sbz4BKp12S0qKi5tp8fs-366" value="&lt;font style=&quot;font-size: 24px;&quot;&gt;2&lt;/font&gt;" style="rounded=0;whiteSpace=wrap;html=1;" parent="1" vertex="1">
          <mxGeometry x="255" y="6300" width="130" height="60" as="geometry" />
        </mxCell>
        <mxCell id="sbz4BKp12S0qKi5tp8fs-367" value="" style="edgeStyle=orthogonalEdgeStyle;rounded=0;orthogonalLoop=1;jettySize=auto;html=1;" parent="1" source="sbz4BKp12S0qKi5tp8fs-368" target="sbz4BKp12S0qKi5tp8fs-370" edge="1">
          <mxGeometry relative="1" as="geometry" />
        </mxCell>
        <mxCell id="sbz4BKp12S0qKi5tp8fs-368" value="&lt;font style=&quot;font-size: 24px;&quot;&gt;3&lt;/font&gt;" style="rounded=0;whiteSpace=wrap;html=1;" parent="1" vertex="1">
          <mxGeometry x="423" y="6310" width="120" height="60" as="geometry" />
        </mxCell>
        <mxCell id="sbz4BKp12S0qKi5tp8fs-369" value="" style="edgeStyle=orthogonalEdgeStyle;rounded=0;orthogonalLoop=1;jettySize=auto;html=1;" parent="1" source="sbz4BKp12S0qKi5tp8fs-370" edge="1">
          <mxGeometry relative="1" as="geometry">
            <mxPoint x="773" y="6340" as="targetPoint" />
          </mxGeometry>
        </mxCell>
        <mxCell id="sbz4BKp12S0qKi5tp8fs-370" value="&lt;font style=&quot;font-size: 24px;&quot;&gt;4&lt;/font&gt;" style="rounded=0;whiteSpace=wrap;html=1;" parent="1" vertex="1">
          <mxGeometry x="593" y="6310" width="120" height="60" as="geometry" />
        </mxCell>
        <mxCell id="sbz4BKp12S0qKi5tp8fs-371" value="" style="edgeStyle=orthogonalEdgeStyle;rounded=0;orthogonalLoop=1;jettySize=auto;html=1;" parent="1" source="sbz4BKp12S0qKi5tp8fs-372" target="sbz4BKp12S0qKi5tp8fs-373" edge="1">
          <mxGeometry relative="1" as="geometry" />
        </mxCell>
        <mxCell id="sbz4BKp12S0qKi5tp8fs-372" value="&lt;font style=&quot;font-size: 24px;&quot;&gt;5&lt;/font&gt;" style="rounded=0;whiteSpace=wrap;html=1;" parent="1" vertex="1">
          <mxGeometry x="770" y="6310" width="120" height="60" as="geometry" />
        </mxCell>
        <mxCell id="sbz4BKp12S0qKi5tp8fs-373" value="&lt;font style=&quot;font-size: 24px;&quot;&gt;6&lt;/font&gt;" style="rounded=0;whiteSpace=wrap;html=1;" parent="1" vertex="1">
          <mxGeometry x="940" y="6310" width="120" height="60" as="geometry" />
        </mxCell>
        <mxCell id="sbz4BKp12S0qKi5tp8fs-376" value="" style="edgeStyle=orthogonalEdgeStyle;rounded=0;orthogonalLoop=1;jettySize=auto;html=1;" parent="1" source="sbz4BKp12S0qKi5tp8fs-377" target="sbz4BKp12S0qKi5tp8fs-364" edge="1">
          <mxGeometry relative="1" as="geometry" />
        </mxCell>
        <mxCell id="sbz4BKp12S0qKi5tp8fs-377" value="&lt;font style=&quot;font-size: 24px;&quot;&gt;dummy&lt;/font&gt;" style="rounded=0;whiteSpace=wrap;html=1;" parent="1" vertex="1">
          <mxGeometry x="-120" y="6310" width="120" height="60" as="geometry" />
        </mxCell>
        <mxCell id="sbz4BKp12S0qKi5tp8fs-378" value="&lt;font style=&quot;font-size: 24px;&quot;&gt;pre&lt;/font&gt;" style="text;html=1;align=center;verticalAlign=middle;resizable=0;points=[];autosize=1;strokeColor=none;fillColor=none;" parent="1" vertex="1">
          <mxGeometry x="-80" y="6250" width="60" height="40" as="geometry" />
        </mxCell>
        <mxCell id="sbz4BKp12S0qKi5tp8fs-380" value="&lt;font style=&quot;font-size: 24px;&quot;&gt;cur&lt;/font&gt;" style="text;html=1;align=center;verticalAlign=middle;resizable=0;points=[];autosize=1;strokeColor=none;fillColor=none;" parent="1" vertex="1">
          <mxGeometry x="295" y="6240" width="60" height="40" as="geometry" />
        </mxCell>
        <mxCell id="sbz4BKp12S0qKi5tp8fs-401" style="edgeStyle=orthogonalEdgeStyle;rounded=0;orthogonalLoop=1;jettySize=auto;html=1;exitX=1;exitY=0.5;exitDx=0;exitDy=0;entryX=0.5;entryY=1;entryDx=0;entryDy=0;" parent="1" source="sbz4BKp12S0qKi5tp8fs-402" target="sbz4BKp12S0qKi5tp8fs-406" edge="1">
          <mxGeometry relative="1" as="geometry">
            <Array as="points">
              <mxPoint x="220" y="6580" />
              <mxPoint x="220" y="6630" />
              <mxPoint x="493" y="6630" />
            </Array>
          </mxGeometry>
        </mxCell>
        <mxCell id="sbz4BKp12S0qKi5tp8fs-402" value="&lt;font style=&quot;font-size: 24px;&quot;&gt;1&lt;/font&gt;" style="rounded=0;whiteSpace=wrap;html=1;" parent="1" vertex="1">
          <mxGeometry x="60" y="6550" width="120" height="60" as="geometry" />
        </mxCell>
        <mxCell id="sbz4BKp12S0qKi5tp8fs-403" style="edgeStyle=orthogonalEdgeStyle;rounded=0;orthogonalLoop=1;jettySize=auto;html=1;entryX=0;entryY=0.5;entryDx=0;entryDy=0;" parent="1" source="sbz4BKp12S0qKi5tp8fs-404" target="sbz4BKp12S0qKi5tp8fs-402" edge="1">
          <mxGeometry relative="1" as="geometry">
            <Array as="points">
              <mxPoint x="223" y="6570" />
              <mxPoint x="223" y="6480" />
              <mxPoint x="40" y="6480" />
              <mxPoint x="40" y="6580" />
            </Array>
          </mxGeometry>
        </mxCell>
        <mxCell id="sbz4BKp12S0qKi5tp8fs-404" value="&lt;font style=&quot;font-size: 24px;&quot;&gt;2&lt;/font&gt;" style="rounded=0;whiteSpace=wrap;html=1;" parent="1" vertex="1">
          <mxGeometry x="265" y="6540" width="130" height="60" as="geometry" />
        </mxCell>
        <mxCell id="sbz4BKp12S0qKi5tp8fs-405" value="" style="edgeStyle=orthogonalEdgeStyle;rounded=0;orthogonalLoop=1;jettySize=auto;html=1;" parent="1" source="sbz4BKp12S0qKi5tp8fs-406" target="sbz4BKp12S0qKi5tp8fs-408" edge="1">
          <mxGeometry relative="1" as="geometry" />
        </mxCell>
        <mxCell id="sbz4BKp12S0qKi5tp8fs-406" value="&lt;font style=&quot;font-size: 24px;&quot;&gt;3&lt;/font&gt;" style="rounded=0;whiteSpace=wrap;html=1;" parent="1" vertex="1">
          <mxGeometry x="433" y="6550" width="120" height="60" as="geometry" />
        </mxCell>
        <mxCell id="sbz4BKp12S0qKi5tp8fs-407" value="" style="edgeStyle=orthogonalEdgeStyle;rounded=0;orthogonalLoop=1;jettySize=auto;html=1;" parent="1" source="sbz4BKp12S0qKi5tp8fs-408" edge="1">
          <mxGeometry relative="1" as="geometry">
            <mxPoint x="783" y="6580" as="targetPoint" />
          </mxGeometry>
        </mxCell>
        <mxCell id="sbz4BKp12S0qKi5tp8fs-408" value="&lt;font style=&quot;font-size: 24px;&quot;&gt;4&lt;/font&gt;" style="rounded=0;whiteSpace=wrap;html=1;" parent="1" vertex="1">
          <mxGeometry x="603" y="6550" width="120" height="60" as="geometry" />
        </mxCell>
        <mxCell id="sbz4BKp12S0qKi5tp8fs-409" value="" style="edgeStyle=orthogonalEdgeStyle;rounded=0;orthogonalLoop=1;jettySize=auto;html=1;" parent="1" source="sbz4BKp12S0qKi5tp8fs-410" target="sbz4BKp12S0qKi5tp8fs-411" edge="1">
          <mxGeometry relative="1" as="geometry" />
        </mxCell>
        <mxCell id="sbz4BKp12S0qKi5tp8fs-410" value="&lt;font style=&quot;font-size: 24px;&quot;&gt;5&lt;/font&gt;" style="rounded=0;whiteSpace=wrap;html=1;" parent="1" vertex="1">
          <mxGeometry x="780" y="6550" width="120" height="60" as="geometry" />
        </mxCell>
        <mxCell id="sbz4BKp12S0qKi5tp8fs-411" value="&lt;font style=&quot;font-size: 24px;&quot;&gt;6&lt;/font&gt;" style="rounded=0;whiteSpace=wrap;html=1;" parent="1" vertex="1">
          <mxGeometry x="950" y="6550" width="120" height="60" as="geometry" />
        </mxCell>
        <mxCell id="sbz4BKp12S0qKi5tp8fs-420" style="edgeStyle=orthogonalEdgeStyle;rounded=0;orthogonalLoop=1;jettySize=auto;html=1;exitX=1;exitY=0.5;exitDx=0;exitDy=0;entryX=1;entryY=0.5;entryDx=0;entryDy=0;" parent="1" source="sbz4BKp12S0qKi5tp8fs-415" target="sbz4BKp12S0qKi5tp8fs-404" edge="1">
          <mxGeometry relative="1" as="geometry">
            <Array as="points">
              <mxPoint x="10" y="6430" />
              <mxPoint x="415" y="6430" />
              <mxPoint x="415" y="6570" />
            </Array>
          </mxGeometry>
        </mxCell>
        <mxCell id="sbz4BKp12S0qKi5tp8fs-415" value="&lt;font style=&quot;font-size: 24px;&quot;&gt;dummy&lt;/font&gt;" style="rounded=0;whiteSpace=wrap;html=1;" parent="1" vertex="1">
          <mxGeometry x="-110" y="6550" width="120" height="60" as="geometry" />
        </mxCell>
        <mxCell id="sbz4BKp12S0qKi5tp8fs-416" value="&lt;font style=&quot;font-size: 24px;&quot;&gt;pre&lt;/font&gt;" style="text;html=1;align=center;verticalAlign=middle;resizable=0;points=[];autosize=1;strokeColor=none;fillColor=none;" parent="1" vertex="1">
          <mxGeometry x="-70" y="6490" width="60" height="40" as="geometry" />
        </mxCell>
        <mxCell id="sbz4BKp12S0qKi5tp8fs-418" value="&lt;font style=&quot;font-size: 24px;&quot;&gt;cur&lt;/font&gt;" style="text;html=1;align=center;verticalAlign=middle;resizable=0;points=[];autosize=1;strokeColor=none;fillColor=none;" parent="1" vertex="1">
          <mxGeometry x="305" y="6480" width="60" height="40" as="geometry" />
        </mxCell>
        <mxCell id="sbz4BKp12S0qKi5tp8fs-419" value="&lt;font style=&quot;font-size: 36px;&quot;&gt;链表反转-头插法&lt;/font&gt;" style="text;html=1;align=center;verticalAlign=middle;resizable=0;points=[];autosize=1;strokeColor=none;fillColor=none;" parent="1" vertex="1">
          <mxGeometry x="-200" y="5920" width="290" height="60" as="geometry" />
        </mxCell>
        <mxCell id="sbz4BKp12S0qKi5tp8fs-439" value="" style="edgeStyle=orthogonalEdgeStyle;rounded=0;orthogonalLoop=1;jettySize=auto;html=1;" parent="1" source="sbz4BKp12S0qKi5tp8fs-422" target="sbz4BKp12S0qKi5tp8fs-424" edge="1">
          <mxGeometry relative="1" as="geometry" />
        </mxCell>
        <mxCell id="sbz4BKp12S0qKi5tp8fs-422" value="&lt;font style=&quot;font-size: 24px;&quot;&gt;2&lt;/font&gt;" style="rounded=0;whiteSpace=wrap;html=1;" parent="1" vertex="1">
          <mxGeometry x="73" y="6790" width="120" height="60" as="geometry" />
        </mxCell>
        <mxCell id="sbz4BKp12S0qKi5tp8fs-450" value="" style="edgeStyle=orthogonalEdgeStyle;rounded=0;orthogonalLoop=1;jettySize=auto;html=1;" parent="1" source="sbz4BKp12S0qKi5tp8fs-424" target="sbz4BKp12S0qKi5tp8fs-426" edge="1">
          <mxGeometry relative="1" as="geometry" />
        </mxCell>
        <mxCell id="sbz4BKp12S0qKi5tp8fs-424" value="&lt;font style=&quot;font-size: 24px;&quot;&gt;1&lt;/font&gt;" style="rounded=0;whiteSpace=wrap;html=1;" parent="1" vertex="1">
          <mxGeometry x="273" y="6790" width="130" height="60" as="geometry" />
        </mxCell>
        <mxCell id="sbz4BKp12S0qKi5tp8fs-425" value="" style="edgeStyle=orthogonalEdgeStyle;rounded=0;orthogonalLoop=1;jettySize=auto;html=1;" parent="1" source="sbz4BKp12S0qKi5tp8fs-426" target="sbz4BKp12S0qKi5tp8fs-428" edge="1">
          <mxGeometry relative="1" as="geometry" />
        </mxCell>
        <mxCell id="sbz4BKp12S0qKi5tp8fs-426" value="&lt;font style=&quot;font-size: 24px;&quot;&gt;3&lt;/font&gt;" style="rounded=0;whiteSpace=wrap;html=1;" parent="1" vertex="1">
          <mxGeometry x="446" y="6790" width="120" height="60" as="geometry" />
        </mxCell>
        <mxCell id="sbz4BKp12S0qKi5tp8fs-427" value="" style="edgeStyle=orthogonalEdgeStyle;rounded=0;orthogonalLoop=1;jettySize=auto;html=1;" parent="1" source="sbz4BKp12S0qKi5tp8fs-428" edge="1">
          <mxGeometry relative="1" as="geometry">
            <mxPoint x="796" y="6820" as="targetPoint" />
          </mxGeometry>
        </mxCell>
        <mxCell id="sbz4BKp12S0qKi5tp8fs-428" value="&lt;font style=&quot;font-size: 24px;&quot;&gt;4&lt;/font&gt;" style="rounded=0;whiteSpace=wrap;html=1;" parent="1" vertex="1">
          <mxGeometry x="616" y="6790" width="120" height="60" as="geometry" />
        </mxCell>
        <mxCell id="sbz4BKp12S0qKi5tp8fs-429" value="" style="edgeStyle=orthogonalEdgeStyle;rounded=0;orthogonalLoop=1;jettySize=auto;html=1;" parent="1" source="sbz4BKp12S0qKi5tp8fs-430" target="sbz4BKp12S0qKi5tp8fs-431" edge="1">
          <mxGeometry relative="1" as="geometry" />
        </mxCell>
        <mxCell id="sbz4BKp12S0qKi5tp8fs-430" value="&lt;font style=&quot;font-size: 24px;&quot;&gt;5&lt;/font&gt;" style="rounded=0;whiteSpace=wrap;html=1;" parent="1" vertex="1">
          <mxGeometry x="793" y="6790" width="120" height="60" as="geometry" />
        </mxCell>
        <mxCell id="sbz4BKp12S0qKi5tp8fs-431" value="&lt;font style=&quot;font-size: 24px;&quot;&gt;6&lt;/font&gt;" style="rounded=0;whiteSpace=wrap;html=1;" parent="1" vertex="1">
          <mxGeometry x="963" y="6790" width="120" height="60" as="geometry" />
        </mxCell>
        <mxCell id="sbz4BKp12S0qKi5tp8fs-434" value="" style="edgeStyle=orthogonalEdgeStyle;rounded=0;orthogonalLoop=1;jettySize=auto;html=1;" parent="1" source="sbz4BKp12S0qKi5tp8fs-435" target="sbz4BKp12S0qKi5tp8fs-422" edge="1">
          <mxGeometry relative="1" as="geometry" />
        </mxCell>
        <mxCell id="sbz4BKp12S0qKi5tp8fs-435" value="&lt;font style=&quot;font-size: 24px;&quot;&gt;dummy&lt;/font&gt;" style="rounded=0;whiteSpace=wrap;html=1;" parent="1" vertex="1">
          <mxGeometry x="-97" y="6790" width="120" height="60" as="geometry" />
        </mxCell>
        <mxCell id="sbz4BKp12S0qKi5tp8fs-436" value="&lt;font style=&quot;font-size: 24px;&quot;&gt;pre&lt;/font&gt;" style="text;html=1;align=center;verticalAlign=middle;resizable=0;points=[];autosize=1;strokeColor=none;fillColor=none;" parent="1" vertex="1">
          <mxGeometry x="-57" y="6730" width="60" height="40" as="geometry" />
        </mxCell>
        <mxCell id="sbz4BKp12S0qKi5tp8fs-437" value="&lt;font style=&quot;font-size: 24px;&quot;&gt;oriHead&lt;/font&gt;" style="text;html=1;align=center;verticalAlign=middle;resizable=0;points=[];autosize=1;strokeColor=none;fillColor=none;" parent="1" vertex="1">
          <mxGeometry x="285" y="6723" width="110" height="40" as="geometry" />
        </mxCell>
        <mxCell id="sbz4BKp12S0qKi5tp8fs-440" value="&lt;font style=&quot;font-size: 24px;&quot;&gt;oriHead&lt;/font&gt;" style="text;html=1;align=center;verticalAlign=middle;resizable=0;points=[];autosize=1;strokeColor=none;fillColor=none;" parent="1" vertex="1">
          <mxGeometry x="63" y="6265" width="110" height="40" as="geometry" />
        </mxCell>
        <mxCell id="sbz4BKp12S0qKi5tp8fs-441" value="&lt;font style=&quot;font-size: 24px;&quot;&gt;oriHead&lt;/font&gt;" style="text;html=1;align=center;verticalAlign=middle;resizable=0;points=[];autosize=1;strokeColor=none;fillColor=none;" parent="1" vertex="1">
          <mxGeometry x="70" y="6500" width="110" height="40" as="geometry" />
        </mxCell>
        <mxCell id="sbz4BKp12S0qKi5tp8fs-442" value="&lt;font style=&quot;font-size: 24px;&quot;&gt;next&lt;/font&gt;" style="text;html=1;align=center;verticalAlign=middle;resizable=0;points=[];autosize=1;strokeColor=none;fillColor=none;" parent="1" vertex="1">
          <mxGeometry x="497.5" y="6045" width="70" height="40" as="geometry" />
        </mxCell>
        <mxCell id="sbz4BKp12S0qKi5tp8fs-443" value="&lt;font style=&quot;font-size: 24px;&quot;&gt;next&lt;/font&gt;" style="text;html=1;align=center;verticalAlign=middle;resizable=0;points=[];autosize=1;strokeColor=none;fillColor=none;" parent="1" vertex="1">
          <mxGeometry x="465" y="6240" width="70" height="40" as="geometry" />
        </mxCell>
        <mxCell id="sbz4BKp12S0qKi5tp8fs-444" value="&lt;font style=&quot;font-size: 24px;&quot;&gt;next&lt;/font&gt;" style="text;html=1;align=center;verticalAlign=middle;resizable=0;points=[];autosize=1;strokeColor=none;fillColor=none;" parent="1" vertex="1">
          <mxGeometry x="450" y="6495" width="70" height="40" as="geometry" />
        </mxCell>
        <mxCell id="sbz4BKp12S0qKi5tp8fs-449" value="&lt;font style=&quot;font-size: 24px;&quot;&gt;cur&lt;/font&gt;" style="text;html=1;align=center;verticalAlign=middle;resizable=0;points=[];autosize=1;strokeColor=none;fillColor=none;" parent="1" vertex="1">
          <mxGeometry x="472.5" y="6723" width="60" height="40" as="geometry" />
        </mxCell>
        <mxCell id="sbz4BKp12S0qKi5tp8fs-457" value="" style="edgeStyle=orthogonalEdgeStyle;rounded=0;orthogonalLoop=1;jettySize=auto;html=1;" parent="1" source="sbz4BKp12S0qKi5tp8fs-458" target="sbz4BKp12S0qKi5tp8fs-460" edge="1">
          <mxGeometry relative="1" as="geometry" />
        </mxCell>
        <mxCell id="sbz4BKp12S0qKi5tp8fs-458" value="&lt;font style=&quot;font-size: 24px;&quot;&gt;3&lt;/font&gt;" style="rounded=0;whiteSpace=wrap;html=1;" parent="1" vertex="1">
          <mxGeometry x="198" y="7137" width="120" height="60" as="geometry" />
        </mxCell>
        <mxCell id="sbz4BKp12S0qKi5tp8fs-486" value="" style="edgeStyle=orthogonalEdgeStyle;rounded=0;orthogonalLoop=1;jettySize=auto;html=1;" parent="1" source="sbz4BKp12S0qKi5tp8fs-460" target="sbz4BKp12S0qKi5tp8fs-464" edge="1">
          <mxGeometry relative="1" as="geometry" />
        </mxCell>
        <mxCell id="sbz4BKp12S0qKi5tp8fs-460" value="&lt;font style=&quot;font-size: 24px;&quot;&gt;2&lt;/font&gt;" style="rounded=0;whiteSpace=wrap;html=1;" parent="1" vertex="1">
          <mxGeometry x="390" y="7137" width="130" height="60" as="geometry" />
        </mxCell>
        <mxCell id="sbz4BKp12S0qKi5tp8fs-487" value="" style="edgeStyle=orthogonalEdgeStyle;rounded=0;orthogonalLoop=1;jettySize=auto;html=1;" parent="1" source="sbz4BKp12S0qKi5tp8fs-462" target="sbz4BKp12S0qKi5tp8fs-458" edge="1">
          <mxGeometry relative="1" as="geometry" />
        </mxCell>
        <mxCell id="sbz4BKp12S0qKi5tp8fs-462" value="&lt;font style=&quot;font-size: 24px;&quot;&gt;4&lt;/font&gt;" style="rounded=0;whiteSpace=wrap;html=1;" parent="1" vertex="1">
          <mxGeometry x="23" y="7137" width="120" height="60" as="geometry" />
        </mxCell>
        <mxCell id="sbz4BKp12S0qKi5tp8fs-463" value="" style="edgeStyle=orthogonalEdgeStyle;rounded=0;orthogonalLoop=1;jettySize=auto;html=1;" parent="1" source="sbz4BKp12S0qKi5tp8fs-464" edge="1">
          <mxGeometry relative="1" as="geometry">
            <mxPoint x="743" y="7167" as="targetPoint" />
          </mxGeometry>
        </mxCell>
        <mxCell id="sbz4BKp12S0qKi5tp8fs-464" value="&lt;font style=&quot;font-size: 24px;&quot;&gt;1&lt;/font&gt;" style="rounded=0;whiteSpace=wrap;html=1;" parent="1" vertex="1">
          <mxGeometry x="563" y="7137" width="120" height="60" as="geometry" />
        </mxCell>
        <mxCell id="sbz4BKp12S0qKi5tp8fs-465" value="" style="edgeStyle=orthogonalEdgeStyle;rounded=0;orthogonalLoop=1;jettySize=auto;html=1;" parent="1" source="sbz4BKp12S0qKi5tp8fs-466" target="sbz4BKp12S0qKi5tp8fs-467" edge="1">
          <mxGeometry relative="1" as="geometry" />
        </mxCell>
        <mxCell id="sbz4BKp12S0qKi5tp8fs-466" value="&lt;font style=&quot;font-size: 24px;&quot;&gt;5&lt;/font&gt;" style="rounded=0;whiteSpace=wrap;html=1;" parent="1" vertex="1">
          <mxGeometry x="740" y="7137" width="120" height="60" as="geometry" />
        </mxCell>
        <mxCell id="sbz4BKp12S0qKi5tp8fs-467" value="&lt;font style=&quot;font-size: 24px;&quot;&gt;6&lt;/font&gt;" style="rounded=0;whiteSpace=wrap;html=1;" parent="1" vertex="1">
          <mxGeometry x="910" y="7137" width="120" height="60" as="geometry" />
        </mxCell>
        <mxCell id="sbz4BKp12S0qKi5tp8fs-468" value="&lt;font style=&quot;font-size: 18px;&quot;&gt;left&lt;/font&gt;" style="text;html=1;strokeColor=none;fillColor=none;align=center;verticalAlign=middle;whiteSpace=wrap;rounded=0;" parent="1" vertex="1">
          <mxGeometry x="60" y="7207" width="60" height="30" as="geometry" />
        </mxCell>
        <mxCell id="sbz4BKp12S0qKi5tp8fs-469" value="&lt;font style=&quot;font-size: 18px;&quot;&gt;right&lt;/font&gt;" style="text;html=1;strokeColor=none;fillColor=none;align=center;verticalAlign=middle;whiteSpace=wrap;rounded=0;" parent="1" vertex="1">
          <mxGeometry x="770" y="7097" width="60" height="30" as="geometry" />
        </mxCell>
        <mxCell id="sbz4BKp12S0qKi5tp8fs-485" style="edgeStyle=orthogonalEdgeStyle;rounded=0;orthogonalLoop=1;jettySize=auto;html=1;exitX=1;exitY=0.5;exitDx=0;exitDy=0;entryX=0;entryY=0.5;entryDx=0;entryDy=0;" parent="1" source="sbz4BKp12S0qKi5tp8fs-471" target="sbz4BKp12S0qKi5tp8fs-462" edge="1">
          <mxGeometry relative="1" as="geometry" />
        </mxCell>
        <mxCell id="sbz4BKp12S0qKi5tp8fs-471" value="&lt;font style=&quot;font-size: 24px;&quot;&gt;dummy&lt;/font&gt;" style="rounded=0;whiteSpace=wrap;html=1;" parent="1" vertex="1">
          <mxGeometry x="-150" y="7137" width="120" height="60" as="geometry" />
        </mxCell>
        <mxCell id="sbz4BKp12S0qKi5tp8fs-472" value="&lt;font style=&quot;font-size: 24px;&quot;&gt;pre&lt;/font&gt;" style="text;html=1;align=center;verticalAlign=middle;resizable=0;points=[];autosize=1;strokeColor=none;fillColor=none;" parent="1" vertex="1">
          <mxGeometry x="-110" y="7077" width="60" height="40" as="geometry" />
        </mxCell>
        <mxCell id="sbz4BKp12S0qKi5tp8fs-473" value="&lt;font style=&quot;font-size: 24px;&quot;&gt;oriHead&lt;/font&gt;" style="text;html=1;align=center;verticalAlign=middle;resizable=0;points=[];autosize=1;strokeColor=none;fillColor=none;" parent="1" vertex="1">
          <mxGeometry x="32" y="7070" width="110" height="40" as="geometry" />
        </mxCell>
        <mxCell id="sbz4BKp12S0qKi5tp8fs-474" value="&lt;font style=&quot;font-size: 36px;&quot;&gt;cnt&amp;nbsp;&lt;/font&gt;" style="text;html=1;align=center;verticalAlign=middle;resizable=0;points=[];autosize=1;strokeColor=none;fillColor=none;" parent="1" vertex="1">
          <mxGeometry x="46.99999999999999" y="7300" width="80" height="60" as="geometry" />
        </mxCell>
        <mxCell id="sbz4BKp12S0qKi5tp8fs-476" value="&lt;font style=&quot;font-size: 36px;&quot;&gt;1&lt;/font&gt;" style="text;html=1;align=center;verticalAlign=middle;resizable=0;points=[];autosize=1;strokeColor=none;fillColor=none;" parent="1" vertex="1">
          <mxGeometry x="67" y="7240" width="40" height="60" as="geometry" />
        </mxCell>
        <mxCell id="sbz4BKp12S0qKi5tp8fs-477" value="&lt;font style=&quot;font-size: 36px;&quot;&gt;2&lt;/font&gt;" style="text;html=1;align=center;verticalAlign=middle;resizable=0;points=[];autosize=1;strokeColor=none;fillColor=none;" parent="1" vertex="1">
          <mxGeometry x="265" y="7240" width="40" height="60" as="geometry" />
        </mxCell>
        <mxCell id="sbz4BKp12S0qKi5tp8fs-478" value="&lt;font style=&quot;font-size: 36px;&quot;&gt;3&lt;/font&gt;" style="text;html=1;align=center;verticalAlign=middle;resizable=0;points=[];autosize=1;strokeColor=none;fillColor=none;" parent="1" vertex="1">
          <mxGeometry x="427" y="7237" width="40" height="60" as="geometry" />
        </mxCell>
        <mxCell id="sbz4BKp12S0qKi5tp8fs-479" value="&lt;span style=&quot;font-size: 36px;&quot;&gt;5&lt;/span&gt;" style="text;html=1;align=center;verticalAlign=middle;resizable=0;points=[];autosize=1;strokeColor=none;fillColor=none;" parent="1" vertex="1">
          <mxGeometry x="784" y="7237" width="40" height="60" as="geometry" />
        </mxCell>
        <mxCell id="sbz4BKp12S0qKi5tp8fs-480" value="&lt;font style=&quot;font-size: 36px;&quot;&gt;4&lt;/font&gt;" style="text;html=1;align=center;verticalAlign=middle;resizable=0;points=[];autosize=1;strokeColor=none;fillColor=none;" parent="1" vertex="1">
          <mxGeometry x="607" y="7227" width="40" height="60" as="geometry" />
        </mxCell>
        <mxCell id="sbz4BKp12S0qKi5tp8fs-488" value="&lt;font style=&quot;font-size: 36px;&quot;&gt;cur&lt;/font&gt;" style="text;html=1;align=center;verticalAlign=middle;resizable=0;points=[];autosize=1;strokeColor=none;fillColor=none;" parent="1" vertex="1">
          <mxGeometry x="765" y="7037" width="70" height="60" as="geometry" />
        </mxCell>
        <mxCell id="sbz4BKp12S0qKi5tp8fs-489" value="&lt;font style=&quot;font-size: 36px;&quot;&gt;NEXT&lt;/font&gt;" style="text;html=1;align=center;verticalAlign=middle;resizable=0;points=[];autosize=1;strokeColor=none;fillColor=none;" parent="1" vertex="1">
          <mxGeometry x="453" y="5240" width="120" height="60" as="geometry" />
        </mxCell>
        <mxCell id="sbz4BKp12S0qKi5tp8fs-492" value="&lt;font style=&quot;font-size: 24px;&quot;&gt;null&lt;/font&gt;" style="text;html=1;align=center;verticalAlign=middle;resizable=0;points=[];autosize=1;strokeColor=none;fillColor=none;" parent="1" vertex="1">
          <mxGeometry x="305" y="5510" width="60" height="40" as="geometry" />
        </mxCell>
        <mxCell id="sbz4BKp12S0qKi5tp8fs-494" value="&lt;font style=&quot;font-size: 36px;&quot;&gt;rear&lt;/font&gt;" style="text;html=1;align=center;verticalAlign=middle;resizable=0;points=[];autosize=1;strokeColor=none;fillColor=none;" parent="1" vertex="1">
          <mxGeometry x="865" y="5680" width="90" height="60" as="geometry" />
        </mxCell>
        <mxCell id="sbz4BKp12S0qKi5tp8fs-495" value="&lt;font style=&quot;font-size: 24px;&quot;&gt;cur&lt;br&gt;&lt;/font&gt;" style="text;html=1;strokeColor=none;fillColor=none;align=center;verticalAlign=middle;whiteSpace=wrap;rounded=0;" parent="1" vertex="1">
          <mxGeometry x="308" y="5270" width="60" height="30" as="geometry" />
        </mxCell>
        <mxCell id="sbz4BKp12S0qKi5tp8fs-509" value="" style="edgeStyle=orthogonalEdgeStyle;rounded=0;orthogonalLoop=1;jettySize=auto;html=1;" parent="1" source="sbz4BKp12S0qKi5tp8fs-510" target="sbz4BKp12S0qKi5tp8fs-512" edge="1">
          <mxGeometry relative="1" as="geometry" />
        </mxCell>
        <mxCell id="sbz4BKp12S0qKi5tp8fs-510" value="&lt;font style=&quot;font-size: 24px;&quot;&gt;2&lt;/font&gt;" style="rounded=0;whiteSpace=wrap;html=1;" parent="1" vertex="1">
          <mxGeometry x="177.5" y="7700" width="120" height="60" as="geometry" />
        </mxCell>
        <mxCell id="sbz4BKp12S0qKi5tp8fs-511" value="" style="edgeStyle=orthogonalEdgeStyle;rounded=0;orthogonalLoop=1;jettySize=auto;html=1;" parent="1" source="sbz4BKp12S0qKi5tp8fs-512" target="sbz4BKp12S0qKi5tp8fs-516" edge="1">
          <mxGeometry relative="1" as="geometry" />
        </mxCell>
        <mxCell id="sbz4BKp12S0qKi5tp8fs-512" value="&lt;font style=&quot;font-size: 24px;&quot;&gt;3&lt;/font&gt;" style="rounded=0;whiteSpace=wrap;html=1;" parent="1" vertex="1">
          <mxGeometry x="369.5" y="7700" width="130" height="60" as="geometry" />
        </mxCell>
        <mxCell id="sbz4BKp12S0qKi5tp8fs-513" value="" style="edgeStyle=orthogonalEdgeStyle;rounded=0;orthogonalLoop=1;jettySize=auto;html=1;" parent="1" source="sbz4BKp12S0qKi5tp8fs-514" target="sbz4BKp12S0qKi5tp8fs-510" edge="1">
          <mxGeometry relative="1" as="geometry" />
        </mxCell>
        <mxCell id="sbz4BKp12S0qKi5tp8fs-514" value="&lt;font style=&quot;font-size: 24px;&quot;&gt;1&lt;/font&gt;" style="rounded=0;whiteSpace=wrap;html=1;" parent="1" vertex="1">
          <mxGeometry x="2.5" y="7700" width="120" height="60" as="geometry" />
        </mxCell>
        <mxCell id="sbz4BKp12S0qKi5tp8fs-516" value="&lt;font style=&quot;font-size: 24px;&quot;&gt;4&lt;/font&gt;" style="rounded=0;whiteSpace=wrap;html=1;" parent="1" vertex="1">
          <mxGeometry x="542.5" y="7700" width="120" height="60" as="geometry" />
        </mxCell>
        <mxCell id="sbz4BKp12S0qKi5tp8fs-520" value="&lt;span style=&quot;font-size: 48px;&quot;&gt;两两交换链表结点&lt;/span&gt;" style="text;html=1;align=center;verticalAlign=middle;resizable=0;points=[];autosize=1;strokeColor=none;fillColor=none;" parent="1" vertex="1">
          <mxGeometry x="-200" y="7460" width="410" height="70" as="geometry" />
        </mxCell>
        <mxCell id="sbz4BKp12S0qKi5tp8fs-521" value="&lt;font style=&quot;font-size: 24px;&quot;&gt;cur&lt;/font&gt;" style="text;html=1;align=center;verticalAlign=middle;resizable=0;points=[];autosize=1;strokeColor=none;fillColor=none;" parent="1" vertex="1">
          <mxGeometry x="-130" y="7640" width="60" height="40" as="geometry" />
        </mxCell>
        <mxCell id="sbz4BKp12S0qKi5tp8fs-523" value="" style="edgeStyle=orthogonalEdgeStyle;rounded=0;orthogonalLoop=1;jettySize=auto;html=1;" parent="1" source="sbz4BKp12S0qKi5tp8fs-522" target="sbz4BKp12S0qKi5tp8fs-514" edge="1">
          <mxGeometry relative="1" as="geometry" />
        </mxCell>
        <mxCell id="sbz4BKp12S0qKi5tp8fs-522" value="&lt;font style=&quot;font-size: 24px;&quot;&gt;dummy&lt;/font&gt;" style="whiteSpace=wrap;html=1;" parent="1" vertex="1">
          <mxGeometry x="-177" y="7700" width="120" height="60" as="geometry" />
        </mxCell>
        <mxCell id="sbz4BKp12S0qKi5tp8fs-524" value="&lt;font style=&quot;font-size: 24px;&quot;&gt;next&lt;/font&gt;" style="text;html=1;align=center;verticalAlign=middle;resizable=0;points=[];autosize=1;strokeColor=none;fillColor=none;" parent="1" vertex="1">
          <mxGeometry x="200" y="7640" width="70" height="40" as="geometry" />
        </mxCell>
        <mxCell id="sbz4BKp12S0qKi5tp8fs-542" style="edgeStyle=orthogonalEdgeStyle;rounded=0;orthogonalLoop=1;jettySize=auto;html=1;exitX=1;exitY=0.5;exitDx=0;exitDy=0;entryX=0.5;entryY=0;entryDx=0;entryDy=0;" parent="1" source="sbz4BKp12S0qKi5tp8fs-526" target="sbz4BKp12S0qKi5tp8fs-530" edge="1">
          <mxGeometry relative="1" as="geometry">
            <Array as="points">
              <mxPoint x="317" y="7880" />
              <mxPoint x="317" y="7830" />
              <mxPoint x="63" y="7830" />
            </Array>
          </mxGeometry>
        </mxCell>
        <mxCell id="sbz4BKp12S0qKi5tp8fs-526" value="&lt;font style=&quot;font-size: 24px;&quot;&gt;2&lt;/font&gt;" style="rounded=0;whiteSpace=wrap;html=1;" parent="1" vertex="1">
          <mxGeometry x="177.5" y="7850" width="120" height="60" as="geometry" />
        </mxCell>
        <mxCell id="sbz4BKp12S0qKi5tp8fs-527" value="" style="edgeStyle=orthogonalEdgeStyle;rounded=0;orthogonalLoop=1;jettySize=auto;html=1;" parent="1" source="sbz4BKp12S0qKi5tp8fs-528" target="sbz4BKp12S0qKi5tp8fs-532" edge="1">
          <mxGeometry relative="1" as="geometry" />
        </mxCell>
        <mxCell id="sbz4BKp12S0qKi5tp8fs-528" value="&lt;font style=&quot;font-size: 24px;&quot;&gt;3&lt;/font&gt;" style="rounded=0;whiteSpace=wrap;html=1;" parent="1" vertex="1">
          <mxGeometry x="369.5" y="7850" width="130" height="60" as="geometry" />
        </mxCell>
        <mxCell id="sbz4BKp12S0qKi5tp8fs-541" style="edgeStyle=orthogonalEdgeStyle;rounded=0;orthogonalLoop=1;jettySize=auto;html=1;exitX=1;exitY=0.5;exitDx=0;exitDy=0;entryX=0.25;entryY=1;entryDx=0;entryDy=0;" parent="1" source="sbz4BKp12S0qKi5tp8fs-530" target="sbz4BKp12S0qKi5tp8fs-528" edge="1">
          <mxGeometry relative="1" as="geometry">
            <Array as="points">
              <mxPoint x="160" y="7880" />
              <mxPoint x="160" y="7980" />
              <mxPoint x="402" y="7980" />
            </Array>
          </mxGeometry>
        </mxCell>
        <mxCell id="sbz4BKp12S0qKi5tp8fs-530" value="&lt;font style=&quot;font-size: 24px;&quot;&gt;1&lt;/font&gt;" style="rounded=0;whiteSpace=wrap;html=1;" parent="1" vertex="1">
          <mxGeometry x="2.5" y="7850" width="120" height="60" as="geometry" />
        </mxCell>
        <mxCell id="sbz4BKp12S0qKi5tp8fs-532" value="&lt;font style=&quot;font-size: 24px;&quot;&gt;4&lt;/font&gt;" style="rounded=0;whiteSpace=wrap;html=1;" parent="1" vertex="1">
          <mxGeometry x="542.5" y="7850" width="120" height="60" as="geometry" />
        </mxCell>
        <mxCell id="sbz4BKp12S0qKi5tp8fs-536" value="&lt;font style=&quot;font-size: 24px;&quot;&gt;cur&lt;/font&gt;" style="text;html=1;align=center;verticalAlign=middle;resizable=0;points=[];autosize=1;strokeColor=none;fillColor=none;" parent="1" vertex="1">
          <mxGeometry x="-144.37" y="7800" width="60" height="40" as="geometry" />
        </mxCell>
        <mxCell id="sbz4BKp12S0qKi5tp8fs-537" value="" style="edgeStyle=orthogonalEdgeStyle;rounded=0;orthogonalLoop=1;jettySize=auto;html=1;" parent="1" source="sbz4BKp12S0qKi5tp8fs-538" target="sbz4BKp12S0qKi5tp8fs-530" edge="1">
          <mxGeometry relative="1" as="geometry" />
        </mxCell>
        <mxCell id="sbz4BKp12S0qKi5tp8fs-538" value="&lt;font style=&quot;font-size: 24px;&quot;&gt;dummy&lt;/font&gt;" style="whiteSpace=wrap;html=1;" parent="1" vertex="1">
          <mxGeometry x="-177" y="7850" width="120" height="60" as="geometry" />
        </mxCell>
        <mxCell id="sbz4BKp12S0qKi5tp8fs-539" value="&lt;font style=&quot;font-size: 24px;&quot;&gt;next&lt;/font&gt;" style="text;html=1;align=center;verticalAlign=middle;resizable=0;points=[];autosize=1;strokeColor=none;fillColor=none;" parent="1" vertex="1">
          <mxGeometry x="210" y="7780" width="70" height="40" as="geometry" />
        </mxCell>
        <mxCell id="sbz4BKp12S0qKi5tp8fs-558" value="" style="edgeStyle=orthogonalEdgeStyle;rounded=0;orthogonalLoop=1;jettySize=auto;html=1;" parent="1" source="sbz4BKp12S0qKi5tp8fs-545" target="sbz4BKp12S0qKi5tp8fs-549" edge="1">
          <mxGeometry relative="1" as="geometry" />
        </mxCell>
        <mxCell id="sbz4BKp12S0qKi5tp8fs-545" value="&lt;font style=&quot;font-size: 24px;&quot;&gt;2&lt;/font&gt;" style="rounded=0;whiteSpace=wrap;html=1;" parent="1" vertex="1">
          <mxGeometry x="-5" y="8050" width="120" height="60" as="geometry" />
        </mxCell>
        <mxCell id="sbz4BKp12S0qKi5tp8fs-546" value="" style="edgeStyle=orthogonalEdgeStyle;rounded=0;orthogonalLoop=1;jettySize=auto;html=1;" parent="1" source="sbz4BKp12S0qKi5tp8fs-547" target="sbz4BKp12S0qKi5tp8fs-551" edge="1">
          <mxGeometry relative="1" as="geometry" />
        </mxCell>
        <mxCell id="sbz4BKp12S0qKi5tp8fs-547" value="&lt;font style=&quot;font-size: 24px;&quot;&gt;3&lt;/font&gt;" style="rounded=0;whiteSpace=wrap;html=1;" parent="1" vertex="1">
          <mxGeometry x="357.25" y="8050" width="130" height="60" as="geometry" />
        </mxCell>
        <mxCell id="sbz4BKp12S0qKi5tp8fs-557" value="" style="edgeStyle=orthogonalEdgeStyle;rounded=0;orthogonalLoop=1;jettySize=auto;html=1;" parent="1" source="sbz4BKp12S0qKi5tp8fs-549" target="sbz4BKp12S0qKi5tp8fs-547" edge="1">
          <mxGeometry relative="1" as="geometry" />
        </mxCell>
        <mxCell id="sbz4BKp12S0qKi5tp8fs-549" value="&lt;font style=&quot;font-size: 24px;&quot;&gt;1&lt;/font&gt;" style="rounded=0;whiteSpace=wrap;html=1;" parent="1" vertex="1">
          <mxGeometry x="173" y="8050" width="120" height="60" as="geometry" />
        </mxCell>
        <mxCell id="sbz4BKp12S0qKi5tp8fs-551" value="&lt;font style=&quot;font-size: 24px;&quot;&gt;4&lt;/font&gt;" style="rounded=0;whiteSpace=wrap;html=1;" parent="1" vertex="1">
          <mxGeometry x="530.25" y="8050" width="120" height="60" as="geometry" />
        </mxCell>
        <mxCell id="sbz4BKp12S0qKi5tp8fs-559" value="" style="edgeStyle=orthogonalEdgeStyle;rounded=0;orthogonalLoop=1;jettySize=auto;html=1;" parent="1" source="sbz4BKp12S0qKi5tp8fs-556" target="sbz4BKp12S0qKi5tp8fs-545" edge="1">
          <mxGeometry relative="1" as="geometry" />
        </mxCell>
        <mxCell id="sbz4BKp12S0qKi5tp8fs-556" value="&lt;font style=&quot;font-size: 24px;&quot;&gt;dummy&lt;/font&gt;" style="whiteSpace=wrap;html=1;" parent="1" vertex="1">
          <mxGeometry x="-189.25" y="8050" width="120" height="60" as="geometry" />
        </mxCell>
        <mxCell id="sbz4BKp12S0qKi5tp8fs-560" value="&lt;font style=&quot;font-size: 24px;&quot;&gt;cur&lt;/font&gt;" style="text;html=1;align=center;verticalAlign=middle;resizable=0;points=[];autosize=1;strokeColor=none;fillColor=none;" parent="1" vertex="1">
          <mxGeometry x="-157" y="7980" width="60" height="40" as="geometry" />
        </mxCell>
        <mxCell id="sbz4BKp12S0qKi5tp8fs-561" value="&lt;font style=&quot;font-size: 24px;&quot;&gt;next&lt;/font&gt;" style="text;html=1;align=center;verticalAlign=middle;resizable=0;points=[];autosize=1;strokeColor=none;fillColor=none;" parent="1" vertex="1">
          <mxGeometry x="10" y="8000" width="70" height="40" as="geometry" />
        </mxCell>
        <mxCell id="sbz4BKp12S0qKi5tp8fs-562" value="" style="edgeStyle=orthogonalEdgeStyle;rounded=0;orthogonalLoop=1;jettySize=auto;html=1;" parent="1" source="sbz4BKp12S0qKi5tp8fs-563" target="sbz4BKp12S0qKi5tp8fs-567" edge="1">
          <mxGeometry relative="1" as="geometry" />
        </mxCell>
        <mxCell id="sbz4BKp12S0qKi5tp8fs-563" value="&lt;font style=&quot;font-size: 24px;&quot;&gt;0&lt;/font&gt;" style="rounded=0;whiteSpace=wrap;html=1;" parent="1" vertex="1">
          <mxGeometry x="-12.25" y="8249" width="120" height="60" as="geometry" />
        </mxCell>
        <mxCell id="sbz4BKp12S0qKi5tp8fs-564" value="" style="edgeStyle=orthogonalEdgeStyle;rounded=0;orthogonalLoop=1;jettySize=auto;html=1;" parent="1" source="sbz4BKp12S0qKi5tp8fs-565" target="sbz4BKp12S0qKi5tp8fs-568" edge="1">
          <mxGeometry relative="1" as="geometry" />
        </mxCell>
        <mxCell id="sbz4BKp12S0qKi5tp8fs-565" value="&lt;font style=&quot;font-size: 24px;&quot;&gt;0&lt;/font&gt;" style="rounded=0;whiteSpace=wrap;html=1;" parent="1" vertex="1">
          <mxGeometry x="350" y="8249" width="130" height="60" as="geometry" />
        </mxCell>
        <mxCell id="sbz4BKp12S0qKi5tp8fs-566" value="" style="edgeStyle=orthogonalEdgeStyle;rounded=0;orthogonalLoop=1;jettySize=auto;html=1;" parent="1" source="sbz4BKp12S0qKi5tp8fs-567" target="sbz4BKp12S0qKi5tp8fs-565" edge="1">
          <mxGeometry relative="1" as="geometry" />
        </mxCell>
        <mxCell id="sbz4BKp12S0qKi5tp8fs-567" value="&lt;font style=&quot;font-size: 24px;&quot;&gt;0&lt;/font&gt;" style="rounded=0;whiteSpace=wrap;html=1;" parent="1" vertex="1">
          <mxGeometry x="165.75" y="8249" width="120" height="60" as="geometry" />
        </mxCell>
        <mxCell id="sbz4BKp12S0qKi5tp8fs-568" value="&lt;font style=&quot;font-size: 24px;&quot;&gt;0&lt;/font&gt;" style="rounded=0;whiteSpace=wrap;html=1;" parent="1" vertex="1">
          <mxGeometry x="523" y="8249" width="120" height="60" as="geometry" />
        </mxCell>
        <mxCell id="sbz4BKp12S0qKi5tp8fs-570" value="" style="edgeStyle=orthogonalEdgeStyle;rounded=0;orthogonalLoop=1;jettySize=auto;html=1;" parent="1" source="sbz4BKp12S0qKi5tp8fs-569" target="sbz4BKp12S0qKi5tp8fs-563" edge="1">
          <mxGeometry relative="1" as="geometry" />
        </mxCell>
        <mxCell id="sbz4BKp12S0qKi5tp8fs-569" value="&lt;font style=&quot;font-size: 24px;&quot;&gt;1&lt;/font&gt;" style="whiteSpace=wrap;html=1;" parent="1" vertex="1">
          <mxGeometry x="-190" y="8249" width="120" height="60" as="geometry" />
        </mxCell>
        <mxCell id="sbz4BKp12S0qKi5tp8fs-571" value="&lt;font style=&quot;font-size: 24px;&quot;&gt;slow&lt;/font&gt;" style="text;html=1;align=center;verticalAlign=middle;resizable=0;points=[];autosize=1;strokeColor=none;fillColor=none;" parent="1" vertex="1">
          <mxGeometry x="375" y="8180" width="70" height="40" as="geometry" />
        </mxCell>
        <mxCell id="sbz4BKp12S0qKi5tp8fs-573" value="&lt;span style=&quot;font-size: 24px;&quot;&gt;fast&lt;/span&gt;" style="text;html=1;align=center;verticalAlign=middle;resizable=0;points=[];autosize=1;strokeColor=none;fillColor=none;" parent="1" vertex="1">
          <mxGeometry x="557.5" y="8180" width="60" height="40" as="geometry" />
        </mxCell>
        <mxCell id="sbz4BKp12S0qKi5tp8fs-574" value="" style="edgeStyle=orthogonalEdgeStyle;rounded=0;orthogonalLoop=1;jettySize=auto;html=1;" parent="1" source="sbz4BKp12S0qKi5tp8fs-575" target="sbz4BKp12S0qKi5tp8fs-579" edge="1">
          <mxGeometry relative="1" as="geometry" />
        </mxCell>
        <mxCell id="sbz4BKp12S0qKi5tp8fs-575" value="&lt;font style=&quot;font-size: 24px;&quot;&gt;1&lt;/font&gt;" style="rounded=0;whiteSpace=wrap;html=1;" parent="1" vertex="1">
          <mxGeometry x="-10.25" y="8410" width="120" height="60" as="geometry" />
        </mxCell>
        <mxCell id="sbz4BKp12S0qKi5tp8fs-576" value="" style="edgeStyle=orthogonalEdgeStyle;rounded=0;orthogonalLoop=1;jettySize=auto;html=1;" parent="1" source="sbz4BKp12S0qKi5tp8fs-577" target="sbz4BKp12S0qKi5tp8fs-580" edge="1">
          <mxGeometry relative="1" as="geometry" />
        </mxCell>
        <mxCell id="sbz4BKp12S0qKi5tp8fs-577" value="&lt;font style=&quot;font-size: 24px;&quot;&gt;0&lt;/font&gt;" style="rounded=0;whiteSpace=wrap;html=1;" parent="1" vertex="1">
          <mxGeometry x="352" y="8410" width="130" height="60" as="geometry" />
        </mxCell>
        <mxCell id="sbz4BKp12S0qKi5tp8fs-578" value="" style="edgeStyle=orthogonalEdgeStyle;rounded=0;orthogonalLoop=1;jettySize=auto;html=1;" parent="1" source="sbz4BKp12S0qKi5tp8fs-579" target="sbz4BKp12S0qKi5tp8fs-577" edge="1">
          <mxGeometry relative="1" as="geometry" />
        </mxCell>
        <mxCell id="sbz4BKp12S0qKi5tp8fs-579" value="&lt;font style=&quot;font-size: 24px;&quot;&gt;3&lt;/font&gt;" style="rounded=0;whiteSpace=wrap;html=1;" parent="1" vertex="1">
          <mxGeometry x="167.75" y="8410" width="120" height="60" as="geometry" />
        </mxCell>
        <mxCell id="sbz4BKp12S0qKi5tp8fs-580" value="&lt;font style=&quot;font-size: 24px;&quot;&gt;0&lt;/font&gt;" style="rounded=0;whiteSpace=wrap;html=1;" parent="1" vertex="1">
          <mxGeometry x="525" y="8410" width="120" height="60" as="geometry" />
        </mxCell>
        <mxCell id="sbz4BKp12S0qKi5tp8fs-581" value="" style="edgeStyle=orthogonalEdgeStyle;rounded=0;orthogonalLoop=1;jettySize=auto;html=1;" parent="1" source="sbz4BKp12S0qKi5tp8fs-582" target="sbz4BKp12S0qKi5tp8fs-575" edge="1">
          <mxGeometry relative="1" as="geometry" />
        </mxCell>
        <mxCell id="sbz4BKp12S0qKi5tp8fs-582" value="&lt;font style=&quot;font-size: 24px;&quot;&gt;0&lt;/font&gt;" style="whiteSpace=wrap;html=1;" parent="1" vertex="1">
          <mxGeometry x="-190" y="8410" width="120" height="60" as="geometry" />
        </mxCell>
        <mxCell id="sbz4BKp12S0qKi5tp8fs-583" value="&lt;font style=&quot;font-size: 24px;&quot;&gt;slow&lt;/font&gt;" style="text;html=1;align=center;verticalAlign=middle;resizable=0;points=[];autosize=1;strokeColor=none;fillColor=none;" parent="1" vertex="1">
          <mxGeometry x="370" y="8350" width="70" height="40" as="geometry" />
        </mxCell>
        <mxCell id="sbz4BKp12S0qKi5tp8fs-584" value="&lt;span style=&quot;font-size: 24px;&quot;&gt;fast&lt;/span&gt;" style="text;html=1;align=center;verticalAlign=middle;resizable=0;points=[];autosize=1;strokeColor=none;fillColor=none;" parent="1" vertex="1">
          <mxGeometry x="553" y="8360" width="60" height="40" as="geometry" />
        </mxCell>
        <mxCell id="sbz4BKp12S0qKi5tp8fs-596" value="&lt;font style=&quot;font-size: 24px;&quot;&gt;2&lt;/font&gt;" style="rounded=0;whiteSpace=wrap;html=1;" parent="1" vertex="1">
          <mxGeometry x="-13" y="8609" width="120" height="60" as="geometry" />
        </mxCell>
        <mxCell id="sbz4BKp12S0qKi5tp8fs-597" value="" style="edgeStyle=orthogonalEdgeStyle;rounded=0;orthogonalLoop=1;jettySize=auto;html=1;" parent="1" source="sbz4BKp12S0qKi5tp8fs-598" target="sbz4BKp12S0qKi5tp8fs-596" edge="1">
          <mxGeometry relative="1" as="geometry" />
        </mxCell>
        <mxCell id="sbz4BKp12S0qKi5tp8fs-598" value="&lt;font style=&quot;font-size: 24px;&quot;&gt;0&lt;/font&gt;" style="whiteSpace=wrap;html=1;" parent="1" vertex="1">
          <mxGeometry x="-190.75" y="8609" width="120" height="60" as="geometry" />
        </mxCell>
        <mxCell id="sbz4BKp12S0qKi5tp8fs-599" value="&lt;font style=&quot;font-size: 24px;&quot;&gt;slow&lt;/font&gt;" style="text;html=1;align=center;verticalAlign=middle;resizable=0;points=[];autosize=1;strokeColor=none;fillColor=none;" parent="1" vertex="1">
          <mxGeometry x="-157.75" y="8530" width="70" height="40" as="geometry" />
        </mxCell>
        <mxCell id="sbz4BKp12S0qKi5tp8fs-600" value="&lt;span style=&quot;font-size: 24px;&quot;&gt;fast&lt;/span&gt;" style="text;html=1;align=center;verticalAlign=middle;resizable=0;points=[];autosize=1;strokeColor=none;fillColor=none;" parent="1" vertex="1">
          <mxGeometry x="17.75" y="8530" width="60" height="40" as="geometry" />
        </mxCell>
        <mxCell id="sbz4BKp12S0qKi5tp8fs-605" value="" style="edgeStyle=orthogonalEdgeStyle;rounded=0;orthogonalLoop=1;jettySize=auto;html=1;" parent="1" source="sbz4BKp12S0qKi5tp8fs-606" target="sbz4BKp12S0qKi5tp8fs-610" edge="1">
          <mxGeometry relative="1" as="geometry" />
        </mxCell>
        <mxCell id="sbz4BKp12S0qKi5tp8fs-606" value="&lt;font style=&quot;font-size: 24px;&quot;&gt;7&lt;/font&gt;" style="rounded=0;whiteSpace=wrap;html=1;" parent="1" vertex="1">
          <mxGeometry x="-52.75" y="8240" width="120" height="60" as="geometry" />
        </mxCell>
        <mxCell id="sbz4BKp12S0qKi5tp8fs-607" value="" style="edgeStyle=orthogonalEdgeStyle;rounded=0;orthogonalLoop=1;jettySize=auto;html=1;" parent="1" source="sbz4BKp12S0qKi5tp8fs-608" target="sbz4BKp12S0qKi5tp8fs-611" edge="1">
          <mxGeometry relative="1" as="geometry" />
        </mxCell>
        <mxCell id="sbz4BKp12S0qKi5tp8fs-608" value="&lt;font style=&quot;font-size: 24px;&quot;&gt;4&lt;/font&gt;" style="rounded=0;whiteSpace=wrap;html=1;" parent="1" vertex="1">
          <mxGeometry x="309.5" y="8240" width="130" height="60" as="geometry" />
        </mxCell>
        <mxCell id="sbz4BKp12S0qKi5tp8fs-609" value="" style="edgeStyle=orthogonalEdgeStyle;rounded=0;orthogonalLoop=1;jettySize=auto;html=1;" parent="1" source="sbz4BKp12S0qKi5tp8fs-610" target="sbz4BKp12S0qKi5tp8fs-608" edge="1">
          <mxGeometry relative="1" as="geometry" />
        </mxCell>
        <mxCell id="sbz4BKp12S0qKi5tp8fs-610" value="&lt;font style=&quot;font-size: 24px;&quot;&gt;2&lt;/font&gt;" style="rounded=0;whiteSpace=wrap;html=1;" parent="1" vertex="1">
          <mxGeometry x="125.25" y="8240" width="120" height="60" as="geometry" />
        </mxCell>
        <mxCell id="sbz4BKp12S0qKi5tp8fs-611" value="&lt;font style=&quot;font-size: 24px;&quot;&gt;3&lt;/font&gt;" style="rounded=0;whiteSpace=wrap;html=1;" parent="1" vertex="1">
          <mxGeometry x="482.5" y="8240" width="120" height="60" as="geometry" />
        </mxCell>
        <mxCell id="sbz4BKp12S0qKi5tp8fs-630" value="" style="edgeStyle=orthogonalEdgeStyle;rounded=0;orthogonalLoop=1;jettySize=auto;html=1;" parent="1" source="sbz4BKp12S0qKi5tp8fs-631" target="sbz4BKp12S0qKi5tp8fs-634" edge="1">
          <mxGeometry relative="1" as="geometry" />
        </mxCell>
        <mxCell id="sbz4BKp12S0qKi5tp8fs-631" value="&lt;font style=&quot;font-size: 24px;&quot;&gt;6&lt;/font&gt;" style="rounded=0;whiteSpace=wrap;html=1;" parent="1" vertex="1">
          <mxGeometry x="309.25" y="8440" width="130" height="60" as="geometry" />
        </mxCell>
        <mxCell id="sbz4BKp12S0qKi5tp8fs-632" value="" style="edgeStyle=orthogonalEdgeStyle;rounded=0;orthogonalLoop=1;jettySize=auto;html=1;" parent="1" source="sbz4BKp12S0qKi5tp8fs-633" target="sbz4BKp12S0qKi5tp8fs-631" edge="1">
          <mxGeometry relative="1" as="geometry" />
        </mxCell>
        <mxCell id="sbz4BKp12S0qKi5tp8fs-633" value="&lt;font style=&quot;font-size: 24px;&quot;&gt;5&lt;/font&gt;" style="rounded=0;whiteSpace=wrap;html=1;" parent="1" vertex="1">
          <mxGeometry x="125" y="8440" width="120" height="60" as="geometry" />
        </mxCell>
        <mxCell id="sbz4BKp12S0qKi5tp8fs-634" value="&lt;font style=&quot;font-size: 24px;&quot;&gt;4&lt;/font&gt;" style="rounded=0;whiteSpace=wrap;html=1;" parent="1" vertex="1">
          <mxGeometry x="477.25" y="8440" width="125" height="60" as="geometry" />
        </mxCell>
        <mxCell id="DiJdIw4fKwJYBwjFMf2u-17" value="" style="edgeStyle=orthogonalEdgeStyle;rounded=0;orthogonalLoop=1;jettySize=auto;html=1;" edge="1" parent="1" source="DiJdIw4fKwJYBwjFMf2u-3" target="DiJdIw4fKwJYBwjFMf2u-14">
          <mxGeometry relative="1" as="geometry" />
        </mxCell>
        <mxCell id="DiJdIw4fKwJYBwjFMf2u-3" value="&lt;font style=&quot;font-size: 24px;&quot;&gt;Dummy&lt;/font&gt;" style="whiteSpace=wrap;html=1;" vertex="1" parent="1">
          <mxGeometry x="-123.5" y="4160" width="147" height="60" as="geometry" />
        </mxCell>
        <mxCell id="DiJdIw4fKwJYBwjFMf2u-8" value="&lt;font style=&quot;font-size: 24px;&quot;&gt;next&lt;br&gt;&lt;/font&gt;" style="text;html=1;strokeColor=none;fillColor=none;align=center;verticalAlign=middle;whiteSpace=wrap;rounded=0;" vertex="1" parent="1">
          <mxGeometry x="270" y="4280" width="60" height="30" as="geometry" />
        </mxCell>
        <mxCell id="DiJdIw4fKwJYBwjFMf2u-14" value="&lt;font style=&quot;font-size: 24px;&quot;&gt;NULL&lt;br&gt;&lt;/font&gt;" style="text;html=1;strokeColor=none;fillColor=none;align=center;verticalAlign=middle;whiteSpace=wrap;rounded=0;" vertex="1" parent="1">
          <mxGeometry x="115.75" y="4175" width="60" height="30" as="geometry" />
        </mxCell>
        <mxCell id="DiJdIw4fKwJYBwjFMf2u-18" value="&lt;font style=&quot;font-size: 36px;&quot;&gt;链表反转-dummy 206&lt;/font&gt;" style="text;html=1;align=center;verticalAlign=middle;resizable=0;points=[];autosize=1;strokeColor=none;fillColor=none;" vertex="1" parent="1">
          <mxGeometry x="-142" y="4050" width="370" height="60" as="geometry" />
        </mxCell>
        <mxCell id="DiJdIw4fKwJYBwjFMf2u-47" style="edgeStyle=orthogonalEdgeStyle;rounded=0;orthogonalLoop=1;jettySize=auto;html=1;exitX=0.5;exitY=0;exitDx=0;exitDy=0;entryX=0.25;entryY=1;entryDx=0;entryDy=0;" edge="1" parent="1" source="DiJdIw4fKwJYBwjFMf2u-34" target="DiJdIw4fKwJYBwjFMf2u-46">
          <mxGeometry relative="1" as="geometry" />
        </mxCell>
        <mxCell id="DiJdIw4fKwJYBwjFMf2u-34" value="&lt;font style=&quot;font-size: 24px;&quot;&gt;1&lt;/font&gt;" style="rounded=0;whiteSpace=wrap;html=1;" vertex="1" parent="1">
          <mxGeometry x="1101" y="4310" width="117.5" height="60" as="geometry" />
        </mxCell>
        <mxCell id="DiJdIw4fKwJYBwjFMf2u-35" value="" style="edgeStyle=orthogonalEdgeStyle;rounded=0;orthogonalLoop=1;jettySize=auto;html=1;" edge="1" parent="1" source="DiJdIw4fKwJYBwjFMf2u-36" target="DiJdIw4fKwJYBwjFMf2u-38">
          <mxGeometry relative="1" as="geometry" />
        </mxCell>
        <mxCell id="DiJdIw4fKwJYBwjFMf2u-36" value="&lt;font style=&quot;font-size: 24px;&quot;&gt;2&lt;/font&gt;" style="rounded=0;whiteSpace=wrap;html=1;" vertex="1" parent="1">
          <mxGeometry x="1268.5" y="4310" width="130" height="60" as="geometry" />
        </mxCell>
        <mxCell id="DiJdIw4fKwJYBwjFMf2u-37" value="" style="edgeStyle=orthogonalEdgeStyle;rounded=0;orthogonalLoop=1;jettySize=auto;html=1;" edge="1" parent="1" source="DiJdIw4fKwJYBwjFMf2u-38" target="DiJdIw4fKwJYBwjFMf2u-40">
          <mxGeometry relative="1" as="geometry" />
        </mxCell>
        <mxCell id="DiJdIw4fKwJYBwjFMf2u-38" value="&lt;font style=&quot;font-size: 24px;&quot;&gt;3&lt;/font&gt;" style="rounded=0;whiteSpace=wrap;html=1;" vertex="1" parent="1">
          <mxGeometry x="1451.5" y="4310" width="120" height="60" as="geometry" />
        </mxCell>
        <mxCell id="DiJdIw4fKwJYBwjFMf2u-39" value="" style="edgeStyle=orthogonalEdgeStyle;rounded=0;orthogonalLoop=1;jettySize=auto;html=1;" edge="1" parent="1" source="DiJdIw4fKwJYBwjFMf2u-40">
          <mxGeometry relative="1" as="geometry">
            <mxPoint x="1801.5" y="4340" as="targetPoint" />
          </mxGeometry>
        </mxCell>
        <mxCell id="DiJdIw4fKwJYBwjFMf2u-40" value="&lt;font style=&quot;font-size: 24px;&quot;&gt;4&lt;/font&gt;" style="rounded=0;whiteSpace=wrap;html=1;" vertex="1" parent="1">
          <mxGeometry x="1621.5" y="4310" width="120" height="60" as="geometry" />
        </mxCell>
        <mxCell id="DiJdIw4fKwJYBwjFMf2u-41" value="&lt;font style=&quot;font-size: 24px;&quot;&gt;5&lt;/font&gt;" style="rounded=0;whiteSpace=wrap;html=1;" vertex="1" parent="1">
          <mxGeometry x="1798.5" y="4310" width="120" height="60" as="geometry" />
        </mxCell>
        <mxCell id="DiJdIw4fKwJYBwjFMf2u-42" value="&lt;font style=&quot;font-size: 24px;&quot;&gt;cur&lt;br&gt;&lt;/font&gt;" style="text;html=1;strokeColor=none;fillColor=none;align=center;verticalAlign=middle;whiteSpace=wrap;rounded=0;" vertex="1" parent="1">
          <mxGeometry x="1303.5" y="4260" width="60" height="30" as="geometry" />
        </mxCell>
        <mxCell id="DiJdIw4fKwJYBwjFMf2u-49" style="edgeStyle=orthogonalEdgeStyle;rounded=0;orthogonalLoop=1;jettySize=auto;html=1;exitX=1;exitY=0.5;exitDx=0;exitDy=0;entryX=0;entryY=0.5;entryDx=0;entryDy=0;" edge="1" parent="1" source="DiJdIw4fKwJYBwjFMf2u-44" target="DiJdIw4fKwJYBwjFMf2u-34">
          <mxGeometry relative="1" as="geometry" />
        </mxCell>
        <mxCell id="DiJdIw4fKwJYBwjFMf2u-44" value="&lt;font style=&quot;font-size: 24px;&quot;&gt;Dummy&lt;/font&gt;" style="whiteSpace=wrap;html=1;" vertex="1" parent="1">
          <mxGeometry x="905" y="4140" width="147" height="60" as="geometry" />
        </mxCell>
        <mxCell id="DiJdIw4fKwJYBwjFMf2u-45" value="&lt;font style=&quot;font-size: 24px;&quot;&gt;next&lt;br&gt;&lt;/font&gt;" style="text;html=1;strokeColor=none;fillColor=none;align=center;verticalAlign=middle;whiteSpace=wrap;rounded=0;" vertex="1" parent="1">
          <mxGeometry x="1460" y="4270" width="60" height="30" as="geometry" />
        </mxCell>
        <mxCell id="DiJdIw4fKwJYBwjFMf2u-46" value="&lt;font style=&quot;font-size: 24px;&quot;&gt;NULL&lt;br&gt;&lt;/font&gt;" style="text;html=1;strokeColor=none;fillColor=none;align=center;verticalAlign=middle;whiteSpace=wrap;rounded=0;" vertex="1" parent="1">
          <mxGeometry x="1144.25" y="4155" width="60" height="30" as="geometry" />
        </mxCell>
        <mxCell id="DiJdIw4fKwJYBwjFMf2u-67" style="edgeStyle=orthogonalEdgeStyle;rounded=0;orthogonalLoop=1;jettySize=auto;html=1;exitX=1;exitY=0.5;exitDx=0;exitDy=0;entryX=0;entryY=0.5;entryDx=0;entryDy=0;" edge="1" parent="1" source="DiJdIw4fKwJYBwjFMf2u-51" target="DiJdIw4fKwJYBwjFMf2u-63">
          <mxGeometry relative="1" as="geometry" />
        </mxCell>
        <mxCell id="DiJdIw4fKwJYBwjFMf2u-51" value="&lt;font style=&quot;font-size: 24px;&quot;&gt;1&lt;/font&gt;" style="rounded=0;whiteSpace=wrap;html=1;" vertex="1" parent="1">
          <mxGeometry x="2653.5" y="4140" width="117.5" height="60" as="geometry" />
        </mxCell>
        <mxCell id="DiJdIw4fKwJYBwjFMf2u-66" style="edgeStyle=orthogonalEdgeStyle;rounded=0;orthogonalLoop=1;jettySize=auto;html=1;exitX=1;exitY=0.5;exitDx=0;exitDy=0;" edge="1" parent="1" source="DiJdIw4fKwJYBwjFMf2u-53">
          <mxGeometry relative="1" as="geometry">
            <mxPoint x="2653.5" y="4170" as="targetPoint" />
          </mxGeometry>
        </mxCell>
        <mxCell id="DiJdIw4fKwJYBwjFMf2u-53" value="&lt;font style=&quot;font-size: 24px;&quot;&gt;2&lt;/font&gt;" style="rounded=0;whiteSpace=wrap;html=1;" vertex="1" parent="1">
          <mxGeometry x="2502" y="4140" width="130" height="60" as="geometry" />
        </mxCell>
        <mxCell id="DiJdIw4fKwJYBwjFMf2u-65" style="edgeStyle=orthogonalEdgeStyle;rounded=0;orthogonalLoop=1;jettySize=auto;html=1;exitX=1;exitY=0.5;exitDx=0;exitDy=0;entryX=0;entryY=0.5;entryDx=0;entryDy=0;" edge="1" parent="1" source="DiJdIw4fKwJYBwjFMf2u-55" target="DiJdIw4fKwJYBwjFMf2u-53">
          <mxGeometry relative="1" as="geometry" />
        </mxCell>
        <mxCell id="DiJdIw4fKwJYBwjFMf2u-55" value="&lt;font style=&quot;font-size: 24px;&quot;&gt;3&lt;/font&gt;" style="rounded=0;whiteSpace=wrap;html=1;" vertex="1" parent="1">
          <mxGeometry x="2343.5" y="4140" width="110" height="60" as="geometry" />
        </mxCell>
        <mxCell id="DiJdIw4fKwJYBwjFMf2u-70" style="edgeStyle=orthogonalEdgeStyle;rounded=0;orthogonalLoop=1;jettySize=auto;html=1;exitX=1;exitY=0.5;exitDx=0;exitDy=0;entryX=0;entryY=0.5;entryDx=0;entryDy=0;" edge="1" parent="1" source="DiJdIw4fKwJYBwjFMf2u-57" target="DiJdIw4fKwJYBwjFMf2u-55">
          <mxGeometry relative="1" as="geometry" />
        </mxCell>
        <mxCell id="DiJdIw4fKwJYBwjFMf2u-57" value="&lt;font style=&quot;font-size: 24px;&quot;&gt;4&lt;/font&gt;" style="rounded=0;whiteSpace=wrap;html=1;" vertex="1" parent="1">
          <mxGeometry x="2170" y="4140" width="120" height="60" as="geometry" />
        </mxCell>
        <mxCell id="DiJdIw4fKwJYBwjFMf2u-58" value="&lt;font style=&quot;font-size: 24px;&quot;&gt;5&lt;/font&gt;" style="rounded=0;whiteSpace=wrap;html=1;" vertex="1" parent="1">
          <mxGeometry x="2803.5" y="4300" width="120" height="60" as="geometry" />
        </mxCell>
        <mxCell id="DiJdIw4fKwJYBwjFMf2u-59" value="&lt;font style=&quot;font-size: 24px;&quot;&gt;cur&lt;br&gt;&lt;/font&gt;" style="text;html=1;strokeColor=none;fillColor=none;align=center;verticalAlign=middle;whiteSpace=wrap;rounded=0;" vertex="1" parent="1">
          <mxGeometry x="2835" y="4250" width="60" height="30" as="geometry" />
        </mxCell>
        <mxCell id="DiJdIw4fKwJYBwjFMf2u-61" value="&lt;font style=&quot;font-size: 24px;&quot;&gt;Dummy&lt;/font&gt;" style="whiteSpace=wrap;html=1;" vertex="1" parent="1">
          <mxGeometry x="1980" y="4140" width="147" height="60" as="geometry" />
        </mxCell>
        <mxCell id="DiJdIw4fKwJYBwjFMf2u-62" value="&lt;font style=&quot;font-size: 24px;&quot;&gt;next&lt;br&gt;&lt;/font&gt;" style="text;html=1;strokeColor=none;fillColor=none;align=center;verticalAlign=middle;whiteSpace=wrap;rounded=0;" vertex="1" parent="1">
          <mxGeometry x="2960" y="4250" width="60" height="30" as="geometry" />
        </mxCell>
        <mxCell id="DiJdIw4fKwJYBwjFMf2u-63" value="&lt;font style=&quot;font-size: 24px;&quot;&gt;NULL&lt;br&gt;&lt;/font&gt;" style="text;html=1;strokeColor=none;fillColor=none;align=center;verticalAlign=middle;whiteSpace=wrap;rounded=0;" vertex="1" parent="1">
          <mxGeometry x="2803.5" y="4155" width="60" height="30" as="geometry" />
        </mxCell>
        <mxCell id="DiJdIw4fKwJYBwjFMf2u-71" value="&lt;font style=&quot;font-size: 36px;&quot;&gt;新链表&lt;/font&gt;" style="text;html=1;align=center;verticalAlign=middle;resizable=0;points=[];autosize=1;strokeColor=none;fillColor=none;" vertex="1" parent="1">
          <mxGeometry x="-280" y="4160" width="130" height="60" as="geometry" />
        </mxCell>
        <mxCell id="DiJdIw4fKwJYBwjFMf2u-72" value="&lt;font style=&quot;font-size: 36px;&quot;&gt;链表反转-无dummy&lt;/font&gt;" style="text;html=1;align=center;verticalAlign=middle;resizable=0;points=[];autosize=1;strokeColor=none;fillColor=none;" vertex="1" parent="1">
          <mxGeometry x="-190" y="4450" width="330" height="60" as="geometry" />
        </mxCell>
      </root>
    </mxGraphModel>
  </diagram>
</mxfile>
